<?xml version="1.0" encoding="UTF-8"?><svg xmlns="http://www.w3.org/2000/svg" xmlns:xlink="http://www.w3.org/1999/xlink" width="300pt" height="299.999988pt" viewBox="0 0 300 299.999988" version="1.2"><defs><clipPath id="clip1">  <path d="M 17.3125 222 L 82 222 L 82 290 L 17.3125 290 Z M 17.3125 222 "/></clipPath><clipPath id="clip2">  <path d="M 27.800781 37.617188 L 282.8125 37.617188 L 282.8125 294.378906 L 27.800781 294.378906 Z M 27.800781 37.617188 "/></clipPath></defs><g id="surface1"><path style=" stroke:none;fill-rule:nonzero;fill:rgb(41.178894%,41.178894%,41.178894%);fill-opacity:1;" d="M 82.128906 266.480469 C 82.527344 266.695312 82.957031 266.796875 83.382812 266.796875 C 84.332031 266.796875 85.25 266.289062 85.726562 265.390625 C 86.417969 264.097656 85.933594 262.488281 84.636719 261.796875 C 67.324219 252.539062 53.238281 237.644531 44.972656 219.863281 C 44.355469 218.535156 42.773438 217.953125 41.445312 218.574219 C 40.113281 219.191406 39.535156 220.773438 40.152344 222.101562 C 48.898438 240.921875 63.808594 256.683594 82.128906 266.480469 "/><g clip-path="url(#clip1)" clip-rule="nonzero"><path style=" stroke:none;fill-rule:nonzero;fill:rgb(41.178894%,41.178894%,41.178894%);fill-opacity:1;" d="M 77.695312 289.207031 C 78.097656 289.421875 78.523438 289.523438 78.949219 289.523438 C 79.898438 289.523438 80.816406 289.011719 81.292969 288.117188 C 81.988281 286.824219 81.5 285.214844 80.203125 284.523438 C 55.125 271.109375 34.722656 249.539062 22.75 223.78125 C 22.132812 222.453125 20.550781 221.875 19.21875 222.492188 C 17.890625 223.109375 17.3125 224.691406 17.929688 226.019531 C 30.382812 252.816406 51.609375 275.253906 77.695312 289.207031 "/></g><path style=" stroke:none;fill-rule:nonzero;fill:rgb(100%,100%,100%);fill-opacity:1;" d="M 39.648438 179.066406 C 39.660156 179.074219 39.667969 179.085938 39.679688 179.09375 L 106.074219 232.816406 C 106.082031 232.824219 106.089844 232.835938 106.097656 232.84375 C 106.15625 232.890625 106.207031 232.949219 106.261719 233.003906 C 106.335938 233.078125 106.414062 233.152344 106.480469 233.234375 C 106.484375 233.238281 106.492188 233.246094 106.496094 233.25 L 124.417969 256.253906 C 153.34375 293.378906 207.179688 299.996094 244.425781 271.003906 C 257.554688 260.785156 267.355469 247.121094 272.769531 231.488281 C 275.816406 222.6875 277.410156 213.503906 277.496094 204.1875 C 277.367188 157.554688 254.316406 98.121094 254.082031 97.527344 C 254.035156 97.40625 253.996094 97.277344 253.96875 97.148438 C 253.027344 93.035156 250.542969 89.539062 246.964844 87.296875 C 243.382812 85.046875 239.128906 84.332031 234.996094 85.289062 C 226.472656 87.25 221.117188 95.769531 223.058594 104.277344 L 235.28125 157.84375 C 235.296875 157.898438 235.296875 157.957031 235.304688 158.015625 C 235.320312 158.113281 235.335938 158.214844 235.34375 158.316406 C 235.34375 158.402344 235.339844 158.484375 235.335938 158.570312 C 235.328125 158.652344 235.328125 158.738281 235.316406 158.824219 C 235.300781 158.914062 235.28125 158.996094 235.257812 159.082031 C 235.238281 159.164062 235.21875 159.242188 235.191406 159.320312 C 235.160156 159.402344 235.125 159.480469 235.085938 159.558594 C 235.050781 159.636719 235.015625 159.710938 234.972656 159.785156 C 234.925781 159.863281 234.875 159.933594 234.820312 160.003906 C 234.773438 160.070312 234.726562 160.136719 234.671875 160.199219 C 234.601562 160.273438 234.527344 160.339844 234.449219 160.40625 C 234.40625 160.445312 234.371094 160.492188 234.324219 160.527344 C 234.316406 160.535156 234.304688 160.539062 234.296875 160.542969 C 234.09375 160.699219 233.859375 160.820312 233.613281 160.910156 C 233.558594 160.929688 233.511719 160.949219 233.457031 160.964844 C 233.398438 160.980469 233.34375 161.007812 233.285156 161.023438 C 233.09375 161.066406 232.90625 161.082031 232.71875 161.085938 C 232.710938 161.085938 232.703125 161.089844 232.691406 161.089844 C 232.628906 161.089844 232.5625 161.070312 232.5 161.066406 C 232.390625 161.058594 232.28125 161.050781 232.175781 161.03125 C 232.089844 161.015625 232.007812 160.984375 231.921875 160.960938 C 231.832031 160.933594 231.742188 160.90625 231.652344 160.867188 C 231.570312 160.832031 231.488281 160.789062 231.40625 160.742188 C 231.320312 160.699219 231.242188 160.648438 231.167969 160.59375 C 231.09375 160.542969 231.023438 160.488281 230.953125 160.425781 C 230.871094 160.355469 230.792969 160.277344 230.722656 160.195312 C 230.679688 160.148438 230.632812 160.113281 230.59375 160.066406 L 207.890625 130.925781 C 207.828125 130.847656 207.789062 130.761719 207.738281 130.679688 C 207.71875 130.652344 207.695312 130.636719 207.679688 130.609375 L 162.480469 51.488281 C 162.472656 51.476562 162.46875 51.460938 162.460938 51.449219 C 162.457031 51.4375 162.445312 51.425781 162.441406 51.414062 C 160.464844 47.679688 157.148438 44.945312 153.105469 43.710938 C 149.058594 42.472656 144.769531 42.882812 141.023438 44.871094 C 133.300781 48.964844 130.328125 58.554688 134.394531 66.261719 L 183.058594 150.71875 C 183.070312 150.746094 183.078125 150.769531 183.089844 150.796875 C 183.136719 150.878906 183.171875 150.96875 183.207031 151.054688 C 183.238281 151.132812 183.269531 151.207031 183.292969 151.285156 C 183.320312 151.371094 183.335938 151.457031 183.351562 151.542969 C 183.367188 151.628906 183.386719 151.710938 183.394531 151.796875 C 183.402344 151.878906 183.398438 151.960938 183.398438 152.046875 C 183.398438 152.132812 183.402344 152.21875 183.394531 152.304688 C 183.382812 152.390625 183.367188 152.472656 183.351562 152.554688 C 183.335938 152.636719 183.320312 152.71875 183.296875 152.800781 C 183.269531 152.882812 183.238281 152.964844 183.207031 153.042969 C 183.171875 153.121094 183.144531 153.199219 183.105469 153.273438 C 183.066406 153.347656 183.015625 153.417969 182.96875 153.492188 C 182.921875 153.566406 182.875 153.640625 182.820312 153.707031 C 182.765625 153.769531 182.710938 153.832031 182.652344 153.890625 C 182.585938 153.957031 182.519531 154.023438 182.445312 154.085938 C 182.425781 154.101562 182.410156 154.125 182.386719 154.140625 C 182.363281 154.160156 182.332031 154.167969 182.308594 154.183594 C 182.230469 154.238281 182.164062 154.300781 182.082031 154.347656 C 181.976562 154.40625 181.863281 154.4375 181.757812 154.480469 C 181.679688 154.515625 181.605469 154.550781 181.527344 154.578125 C 181.273438 154.652344 181.015625 154.703125 180.753906 154.703125 C 180.742188 154.703125 180.730469 154.699219 180.714844 154.699219 C 180.511719 154.695312 180.316406 154.667969 180.121094 154.621094 C 180.050781 154.605469 179.984375 154.574219 179.917969 154.550781 C 179.785156 154.507812 179.648438 154.457031 179.523438 154.390625 C 179.445312 154.351562 179.378906 154.300781 179.304688 154.253906 C 179.195312 154.183594 179.089844 154.105469 178.992188 154.015625 C 178.921875 153.953125 178.855469 153.886719 178.796875 153.816406 C 178.75 153.769531 178.699219 153.730469 178.65625 153.679688 L 107.671875 62.566406 C 102.3125 55.6875 92.335938 54.464844 85.429688 59.839844 C 78.53125 65.210938 77.273438 75.167969 82.625 82.050781 L 153.617188 173.167969 C 153.75 173.34375 153.851562 173.53125 153.9375 173.722656 C 153.953125 173.757812 153.964844 173.792969 153.976562 173.828125 C 154.089844 174.117188 154.15625 174.414062 154.167969 174.714844 C 154.167969 174.75 154.164062 174.785156 154.164062 174.820312 C 154.160156 175.125 154.113281 175.425781 154.007812 175.714844 C 153.992188 175.75 153.976562 175.78125 153.964844 175.8125 C 153.84375 176.101562 153.675781 176.371094 153.457031 176.605469 C 153.445312 176.617188 153.441406 176.632812 153.429688 176.648438 C 153.386719 176.691406 153.335938 176.722656 153.289062 176.765625 C 153.242188 176.808594 153.203125 176.859375 153.152344 176.898438 C 153.132812 176.910156 153.117188 176.914062 153.097656 176.925781 C 152.886719 177.082031 152.660156 177.203125 152.421875 177.289062 C 152.371094 177.308594 152.328125 177.320312 152.277344 177.332031 C 152.03125 177.40625 151.777344 177.457031 151.523438 177.457031 C 151.519531 177.457031 151.519531 177.457031 151.519531 177.457031 C 151.515625 177.457031 151.515625 177.457031 151.515625 177.457031 C 151.214844 177.457031 150.921875 177.390625 150.636719 177.289062 C 150.585938 177.273438 150.539062 177.261719 150.488281 177.238281 C 150.214844 177.125 149.964844 176.960938 149.738281 176.757812 C 149.71875 176.738281 149.691406 176.730469 149.671875 176.710938 L 75.253906 104.90625 C 68.769531 99.335938 58.945312 99.929688 53.164062 106.320312 C 50.320312 109.464844 48.871094 113.519531 49.078125 117.746094 C 49.289062 121.964844 51.128906 125.847656 54.265625 128.675781 C 54.277344 128.6875 54.28125 128.699219 54.289062 128.707031 C 54.300781 128.71875 54.3125 128.722656 54.324219 128.730469 L 124.125 195.636719 C 124.140625 195.652344 124.144531 195.667969 124.15625 195.683594 C 124.382812 195.910156 124.5625 196.167969 124.691406 196.449219 C 124.707031 196.484375 124.726562 196.519531 124.738281 196.554688 C 124.855469 196.835938 124.914062 197.128906 124.929688 197.433594 C 124.933594 197.472656 124.9375 197.507812 124.9375 197.546875 C 124.9375 197.847656 124.882812 198.144531 124.78125 198.429688 C 124.769531 198.46875 124.757812 198.507812 124.742188 198.546875 C 124.660156 198.753906 124.558594 198.953125 124.421875 199.136719 C 124.371094 199.203125 124.308594 199.253906 124.257812 199.3125 C 124.234375 199.335938 124.230469 199.367188 124.203125 199.394531 C 124.164062 199.433594 124.117188 199.464844 124.078125 199.503906 C 124.015625 199.558594 123.949219 199.617188 123.882812 199.664062 C 123.789062 199.738281 123.691406 199.796875 123.589844 199.855469 C 123.523438 199.894531 123.460938 199.933594 123.390625 199.964844 C 123.269531 200.019531 123.148438 200.058594 123.023438 200.09375 C 122.964844 200.109375 122.910156 200.132812 122.851562 200.148438 C 122.664062 200.1875 122.476562 200.210938 122.289062 200.210938 C 122.285156 200.210938 122.285156 200.210938 122.285156 200.210938 C 121.980469 200.210938 121.679688 200.148438 121.386719 200.039062 C 121.292969 200.007812 121.210938 199.949219 121.121094 199.902344 C 120.980469 199.832031 120.832031 199.785156 120.703125 199.6875 L 58.355469 153.449219 C 51.296875 148.324219 41.367188 149.894531 36.210938 156.957031 C 33.707031 160.382812 32.691406 164.574219 33.347656 168.757812 C 34 172.925781 36.238281 176.585938 39.648438 179.066406 "/><g clip-path="url(#clip2)" clip-rule="nonzero"><path style=" stroke:none;fill-rule:nonzero;fill:rgb(41.178894%,41.178894%,41.178894%);fill-opacity:1;" d="M 36.210938 156.957031 C 41.367188 149.894531 51.296875 148.324219 58.355469 153.449219 L 120.703125 199.6875 C 120.832031 199.785156 120.980469 199.832031 121.121094 199.902344 C 121.210938 199.949219 121.292969 200.007812 121.386719 200.039062 C 121.679688 200.148438 121.980469 200.210938 122.285156 200.210938 C 122.285156 200.210938 122.285156 200.210938 122.289062 200.210938 C 122.476562 200.210938 122.667969 200.1875 122.851562 200.148438 C 122.910156 200.132812 122.964844 200.109375 123.023438 200.09375 C 123.148438 200.058594 123.273438 200.019531 123.390625 199.964844 C 123.460938 199.933594 123.523438 199.894531 123.589844 199.855469 C 123.691406 199.796875 123.789062 199.738281 123.882812 199.664062 C 123.949219 199.617188 124.015625 199.558594 124.078125 199.503906 C 124.117188 199.464844 124.164062 199.433594 124.207031 199.394531 C 124.230469 199.367188 124.234375 199.335938 124.257812 199.3125 C 124.308594 199.253906 124.371094 199.203125 124.421875 199.136719 C 124.558594 198.953125 124.660156 198.753906 124.742188 198.546875 C 124.757812 198.507812 124.769531 198.46875 124.78125 198.429688 C 124.882812 198.144531 124.9375 197.847656 124.9375 197.546875 C 124.9375 197.507812 124.933594 197.472656 124.929688 197.433594 C 124.914062 197.128906 124.855469 196.835938 124.738281 196.554688 C 124.726562 196.519531 124.707031 196.484375 124.691406 196.449219 C 124.5625 196.167969 124.386719 195.90625 124.15625 195.683594 C 124.144531 195.667969 124.140625 195.648438 124.125 195.636719 L 54.324219 128.730469 C 54.3125 128.722656 54.300781 128.71875 54.289062 128.707031 C 54.277344 128.699219 54.277344 128.6875 54.265625 128.675781 C 51.128906 125.847656 49.289062 121.964844 49.078125 117.746094 C 48.871094 113.519531 50.320312 109.460938 53.164062 106.320312 C 58.945312 99.929688 68.769531 99.335938 75.253906 104.90625 L 149.671875 176.710938 C 149.691406 176.730469 149.71875 176.738281 149.738281 176.757812 C 149.964844 176.960938 150.214844 177.125 150.488281 177.238281 C 150.539062 177.257812 150.585938 177.273438 150.636719 177.289062 C 150.921875 177.390625 151.214844 177.457031 151.515625 177.457031 C 151.515625 177.457031 151.515625 177.457031 151.519531 177.457031 C 151.519531 177.457031 151.519531 177.457031 151.523438 177.457031 C 151.777344 177.457031 152.03125 177.40625 152.277344 177.332031 C 152.328125 177.320312 152.375 177.308594 152.421875 177.289062 C 152.660156 177.203125 152.886719 177.082031 153.097656 176.925781 C 153.117188 176.914062 153.136719 176.910156 153.152344 176.898438 C 153.203125 176.859375 153.242188 176.808594 153.289062 176.765625 C 153.335938 176.722656 153.386719 176.691406 153.429688 176.648438 C 153.441406 176.632812 153.445312 176.617188 153.457031 176.605469 C 153.675781 176.371094 153.84375 176.101562 153.964844 175.8125 C 153.976562 175.78125 153.992188 175.75 154.007812 175.714844 C 154.113281 175.425781 154.164062 175.125 154.164062 174.816406 C 154.164062 174.785156 154.167969 174.75 154.167969 174.714844 C 154.15625 174.414062 154.09375 174.113281 153.976562 173.828125 C 153.964844 173.792969 153.953125 173.757812 153.9375 173.722656 C 153.851562 173.53125 153.75 173.34375 153.617188 173.167969 L 82.625 82.050781 C 77.273438 75.171875 78.53125 65.210938 85.433594 59.835938 C 92.335938 54.460938 102.3125 55.6875 107.671875 62.566406 L 178.65625 153.675781 C 178.699219 153.730469 178.75 153.769531 178.796875 153.816406 C 178.859375 153.886719 178.921875 153.953125 178.992188 154.015625 C 179.089844 154.105469 179.195312 154.183594 179.304688 154.253906 C 179.378906 154.300781 179.445312 154.351562 179.523438 154.390625 C 179.648438 154.457031 179.78125 154.503906 179.917969 154.550781 C 179.988281 154.574219 180.050781 154.605469 180.121094 154.621094 C 180.316406 154.667969 180.515625 154.695312 180.714844 154.699219 C 180.730469 154.699219 180.742188 154.703125 180.757812 154.703125 C 181.015625 154.703125 181.273438 154.652344 181.527344 154.578125 C 181.605469 154.550781 181.679688 154.511719 181.757812 154.480469 C 181.863281 154.4375 181.976562 154.40625 182.082031 154.347656 C 182.164062 154.300781 182.230469 154.238281 182.308594 154.183594 C 182.332031 154.167969 182.363281 154.160156 182.386719 154.140625 C 182.410156 154.125 182.425781 154.101562 182.445312 154.085938 C 182.519531 154.023438 182.585938 153.957031 182.652344 153.890625 C 182.710938 153.828125 182.769531 153.769531 182.820312 153.707031 C 182.875 153.636719 182.921875 153.566406 182.96875 153.492188 C 183.015625 153.417969 183.066406 153.347656 183.105469 153.273438 C 183.144531 153.199219 183.171875 153.121094 183.207031 153.042969 C 183.238281 152.964844 183.273438 152.882812 183.296875 152.800781 C 183.320312 152.71875 183.335938 152.636719 183.351562 152.554688 C 183.367188 152.46875 183.386719 152.390625 183.394531 152.304688 C 183.402344 152.21875 183.402344 152.132812 183.402344 152.042969 C 183.402344 151.960938 183.402344 151.878906 183.394531 151.796875 C 183.386719 151.710938 183.367188 151.628906 183.351562 151.542969 C 183.335938 151.457031 183.320312 151.371094 183.296875 151.285156 C 183.269531 151.207031 183.238281 151.132812 183.207031 151.054688 C 183.171875 150.964844 183.136719 150.878906 183.089844 150.796875 C 183.078125 150.769531 183.070312 150.742188 183.054688 150.71875 L 134.394531 66.261719 C 130.328125 58.554688 133.300781 48.964844 141.023438 44.867188 C 144.769531 42.882812 149.0625 42.472656 153.105469 43.707031 C 157.148438 44.945312 160.464844 47.679688 162.441406 51.414062 C 162.445312 51.425781 162.457031 51.4375 162.460938 51.449219 C 162.46875 51.460938 162.472656 51.476562 162.480469 51.488281 L 207.679688 130.605469 C 207.695312 130.632812 207.71875 130.652344 207.734375 130.679688 C 207.785156 130.761719 207.828125 130.847656 207.890625 130.925781 L 230.59375 160.066406 C 230.632812 160.113281 230.683594 160.148438 230.722656 160.195312 C 230.796875 160.277344 230.871094 160.355469 230.953125 160.425781 C 231.023438 160.488281 231.09375 160.542969 231.167969 160.59375 C 231.246094 160.648438 231.324219 160.695312 231.40625 160.742188 C 231.488281 160.789062 231.570312 160.832031 231.65625 160.867188 C 231.742188 160.90625 231.832031 160.933594 231.921875 160.960938 C 232.007812 160.984375 232.089844 161.015625 232.175781 161.03125 C 232.28125 161.050781 232.390625 161.058594 232.5 161.066406 C 232.5625 161.070312 232.628906 161.089844 232.695312 161.089844 C 232.703125 161.089844 232.710938 161.085938 232.71875 161.085938 C 232.90625 161.082031 233.097656 161.066406 233.285156 161.023438 C 233.34375 161.007812 233.398438 160.980469 233.457031 160.964844 C 233.511719 160.949219 233.5625 160.929688 233.613281 160.910156 C 233.863281 160.820312 234.09375 160.699219 234.296875 160.542969 C 234.304688 160.539062 234.316406 160.535156 234.324219 160.527344 C 234.371094 160.492188 234.40625 160.445312 234.449219 160.40625 C 234.527344 160.339844 234.605469 160.273438 234.671875 160.199219 C 234.726562 160.136719 234.773438 160.070312 234.820312 160.003906 C 234.875 159.933594 234.925781 159.863281 234.972656 159.785156 C 235.015625 159.710938 235.050781 159.632812 235.085938 159.558594 C 235.125 159.480469 235.160156 159.402344 235.191406 159.320312 C 235.21875 159.242188 235.238281 159.164062 235.257812 159.082031 C 235.28125 158.996094 235.300781 158.910156 235.316406 158.824219 C 235.328125 158.738281 235.328125 158.652344 235.335938 158.570312 C 235.339844 158.484375 235.34375 158.402344 235.34375 158.3125 C 235.335938 158.214844 235.320312 158.113281 235.304688 158.015625 C 235.296875 157.957031 235.296875 157.898438 235.285156 157.84375 L 223.058594 104.273438 C 221.117188 95.769531 226.472656 87.25 234.996094 85.289062 C 239.128906 84.335938 243.382812 85.046875 246.96875 87.296875 C 250.542969 89.539062 253.03125 93.035156 253.96875 97.148438 C 253.996094 97.277344 254.035156 97.402344 254.082031 97.527344 C 254.316406 98.121094 277.367188 157.554688 277.496094 204.1875 C 277.410156 213.503906 275.816406 222.6875 272.769531 231.488281 C 267.359375 247.121094 257.554688 260.785156 244.425781 271.003906 C 207.179688 299.996094 153.34375 293.378906 124.417969 256.253906 L 106.496094 233.25 C 106.492188 233.246094 106.484375 233.238281 106.480469 233.234375 C 106.414062 233.152344 106.335938 233.078125 106.261719 233.003906 C 106.207031 232.949219 106.15625 232.890625 106.097656 232.84375 C 106.089844 232.835938 106.082031 232.824219 106.074219 232.816406 L 39.679688 179.09375 C 39.667969 179.085938 39.660156 179.074219 39.648438 179.066406 C 36.238281 176.585938 34 172.921875 33.347656 168.757812 C 32.691406 164.574219 33.707031 160.382812 36.210938 156.957031 Z M 36.277344 183.167969 C 36.296875 183.183594 36.3125 183.207031 36.335938 183.222656 L 102.488281 236.753906 L 120.222656 259.519531 C 138.058594 282.40625 164.792969 294.378906 191.835938 294.378906 C 211.382812 294.378906 231.09375 288.117188 247.691406 275.195312 C 261.632812 264.34375 272.042969 249.832031 277.796875 233.226562 C 281.03125 223.878906 282.722656 214.121094 282.8125 204.226562 C 282.8125 204.222656 282.8125 204.214844 282.8125 204.210938 C 282.8125 204.207031 282.8125 204.199219 282.8125 204.195312 C 282.691406 157.859375 260.539062 99.5 259.105469 95.773438 C 257.816406 90.359375 254.515625 85.753906 249.792969 82.796875 C 245.003906 79.792969 239.324219 78.839844 233.804688 80.109375 C 222.429688 82.730469 215.285156 94.097656 217.875 105.457031 L 227.445312 147.371094 L 212.210938 127.820312 L 167.097656 48.855469 C 167.089844 48.84375 167.082031 48.835938 167.078125 48.824219 C 164.429688 43.890625 160.027344 40.269531 154.664062 38.628906 C 149.261719 36.976562 143.535156 37.523438 138.535156 40.171875 C 128.214844 45.644531 124.253906 58.46875 129.707031 68.761719 C 129.710938 68.777344 129.722656 68.785156 129.726562 68.796875 C 129.738281 68.8125 129.742188 68.828125 129.75 68.847656 L 159.417969 120.335938 L 111.867188 59.300781 C 104.707031 50.113281 91.382812 48.472656 82.167969 55.644531 C 73.460938 62.421875 71.496094 74.667969 77.335938 83.75 C 77.421875 83.957031 77.527344 84.15625 77.671875 84.339844 L 78.429688 85.3125 C 78.429688 85.316406 78.433594 85.320312 78.433594 85.324219 C 78.4375 85.324219 78.4375 85.324219 78.4375 85.328125 L 126.355469 146.832031 L 79.222656 101.347656 C 79.179688 101.304688 79.160156 101.246094 79.113281 101.203125 C 79.027344 101.125 78.933594 101.0625 78.84375 100.984375 L 78.496094 100.648438 C 78.410156 100.566406 78.296875 100.53125 78.199219 100.460938 C 69.539062 93.484375 56.785156 94.394531 49.21875 102.757812 C 45.425781 106.953125 43.492188 112.367188 43.769531 118.007812 C 44.046875 123.617188 46.488281 128.777344 50.636719 132.550781 C 50.640625 132.554688 50.640625 132.5625 50.644531 132.566406 L 90.0625 170.347656 L 61.5 149.164062 C 61.496094 149.164062 61.496094 149.160156 61.492188 149.160156 C 61.492188 149.15625 61.488281 149.15625 61.484375 149.152344 L 61.4375 149.117188 C 61.414062 149.101562 61.386719 149.089844 61.363281 149.074219 C 51.949219 142.332031 38.773438 144.441406 31.917969 153.824219 C 28.578125 158.398438 27.21875 163.992188 28.097656 169.582031 C 28.953125 175.046875 31.859375 179.851562 36.277344 183.167969 "/></g><path style=" stroke:none;fill-rule:nonzero;fill:rgb(41.178894%,41.178894%,41.178894%);fill-opacity:1;" d="M 168.644531 28.101562 C 185.960938 37.359375 200.046875 52.25 208.308594 70.03125 C 208.757812 71 209.71875 71.570312 210.722656 71.570312 C 211.097656 71.570312 211.476562 71.492188 211.839844 71.324219 C 213.171875 70.703125 213.75 69.125 213.132812 67.792969 C 204.382812 48.972656 189.476562 33.214844 171.152344 23.414062 C 169.863281 22.722656 168.25 23.210938 167.554688 24.503906 C 166.863281 25.800781 167.351562 27.40625 168.644531 28.101562 "/><path style=" stroke:none;fill-rule:nonzero;fill:rgb(41.178894%,41.178894%,41.178894%);fill-opacity:1;" d="M 173.078125 5.375 C 198.160156 18.785156 218.5625 40.359375 230.53125 66.113281 C 230.984375 67.082031 231.941406 67.652344 232.945312 67.652344 C 233.320312 67.652344 233.699219 67.574219 234.0625 67.40625 C 235.394531 66.785156 235.972656 65.207031 235.355469 63.878906 C 222.902344 37.082031 201.675781 14.640625 175.585938 0.691406 C 174.296875 0 172.683594 0.488281 171.988281 1.78125 C 171.296875 3.074219 171.785156 4.683594 173.078125 5.375 "/></g></svg>
