<?xml version="1.0" encoding="UTF-8"?><svg xmlns="http://www.w3.org/2000/svg" xmlns:xlink="http://www.w3.org/1999/xlink" width="300pt" height="299.999988pt" viewBox="0 0 300 299.999988" version="1.2"><defs><clipPath id="clip1">  <path d="M 46.503906 44.601562 L 300 44.601562 L 300 300 L 46.503906 300 Z M 46.503906 44.601562 "/></clipPath></defs><g id="surface1"><g clip-path="url(#clip1)" clip-rule="nonzero"><path style=" stroke:none;fill-rule:nonzero;fill:rgb(76.469421%,61.178589%,53.729248%);fill-opacity:1;" d="M 53.300781 185.839844 C 53.3125 185.847656 53.320312 185.859375 53.332031 185.867188 C 53.332031 185.867188 53.332031 185.867188 53.332031 185.871094 L 122.285156 241.625 C 122.296875 241.632812 122.304688 241.644531 122.3125 241.652344 C 122.375 241.703125 122.425781 241.761719 122.480469 241.820312 C 122.558594 241.894531 122.640625 241.972656 122.707031 242.054688 C 122.714844 242.0625 122.71875 242.070312 122.726562 242.074219 L 141.339844 265.949219 C 171.378906 304.476562 227.289062 311.34375 265.972656 281.253906 C 279.609375 270.648438 289.789062 256.46875 295.414062 240.242188 C 298.578125 231.113281 300.230469 221.582031 300.320312 211.914062 C 300.183594 163.515625 276.246094 101.832031 276.003906 101.21875 C 275.957031 101.089844 275.914062 100.957031 275.882812 100.824219 C 274.910156 96.558594 272.328125 92.925781 268.613281 90.601562 C 264.890625 88.269531 260.472656 87.527344 256.183594 88.515625 C 247.328125 90.550781 241.765625 99.390625 243.78125 108.222656 L 256.480469 163.8125 C 256.492188 163.875 256.492188 163.933594 256.5 163.992188 C 256.515625 164.097656 256.535156 164.199219 256.539062 164.304688 C 256.542969 164.394531 256.539062 164.480469 256.53125 164.570312 C 256.527344 164.65625 256.523438 164.746094 256.511719 164.832031 C 256.5 164.925781 256.476562 165.011719 256.449219 165.101562 C 256.429688 165.183594 256.410156 165.269531 256.382812 165.351562 C 256.351562 165.433594 256.3125 165.511719 256.273438 165.59375 C 256.238281 165.675781 256.203125 165.753906 256.15625 165.832031 C 256.109375 165.910156 256.054688 165.984375 256 166.058594 C 255.949219 166.125 255.902344 166.195312 255.84375 166.257812 C 255.773438 166.339844 255.695312 166.40625 255.613281 166.476562 C 255.570312 166.519531 255.53125 166.5625 255.484375 166.601562 C 255.476562 166.609375 255.464844 166.609375 255.453125 166.617188 C 255.242188 166.777344 255.003906 166.90625 254.742188 167 C 254.691406 167.019531 254.636719 167.039062 254.582031 167.054688 C 254.523438 167.074219 254.464844 167.101562 254.402344 167.113281 C 254.207031 167.160156 254.011719 167.175781 253.816406 167.179688 C 253.808594 167.179688 253.796875 167.183594 253.789062 167.183594 C 253.722656 167.183594 253.65625 167.167969 253.585938 167.160156 C 253.472656 167.152344 253.359375 167.144531 253.253906 167.125 C 253.164062 167.105469 253.074219 167.078125 252.988281 167.050781 C 252.894531 167.023438 252.800781 166.992188 252.710938 166.953125 C 252.621094 166.917969 252.535156 166.871094 252.453125 166.824219 C 252.367188 166.777344 252.285156 166.726562 252.207031 166.671875 C 252.128906 166.617188 252.054688 166.558594 251.980469 166.496094 C 251.894531 166.421875 251.820312 166.339844 251.742188 166.253906 C 251.699219 166.207031 251.648438 166.171875 251.609375 166.121094 L 228.03125 135.878906 C 227.96875 135.796875 227.921875 135.710938 227.867188 135.625 C 227.851562 135.597656 227.828125 135.578125 227.8125 135.550781 L 180.867188 53.4375 C 180.859375 53.425781 180.859375 53.410156 180.851562 53.398438 C 180.84375 53.386719 180.832031 53.375 180.828125 53.363281 C 178.773438 49.488281 175.332031 46.648438 171.132812 45.367188 C 166.933594 44.082031 162.476562 44.507812 158.585938 46.570312 C 150.5625 50.820312 147.476562 60.773438 151.699219 68.769531 L 202.238281 156.421875 C 202.253906 156.449219 202.261719 156.476562 202.273438 156.5 C 202.320312 156.589844 202.359375 156.679688 202.394531 156.769531 C 202.425781 156.851562 202.460938 156.929688 202.484375 157.007812 C 202.511719 157.097656 202.527344 157.1875 202.546875 157.277344 C 202.5625 157.363281 202.582031 157.453125 202.589844 157.539062 C 202.597656 157.625 202.597656 157.710938 202.597656 157.796875 C 202.597656 157.886719 202.597656 157.976562 202.589844 158.070312 C 202.578125 158.15625 202.558594 158.238281 202.542969 158.324219 C 202.527344 158.410156 202.511719 158.496094 202.484375 158.582031 C 202.460938 158.667969 202.425781 158.75 202.390625 158.832031 C 202.359375 158.914062 202.328125 158.996094 202.289062 159.074219 C 202.246094 159.152344 202.199219 159.222656 202.148438 159.300781 C 202.101562 159.375 202.050781 159.453125 201.992188 159.523438 C 201.9375 159.589844 201.878906 159.648438 201.816406 159.710938 C 201.75 159.78125 201.679688 159.851562 201.605469 159.914062 C 201.582031 159.933594 201.5625 159.957031 201.542969 159.972656 C 201.515625 159.992188 201.488281 160 201.460938 160.019531 C 201.382812 160.074219 201.3125 160.140625 201.222656 160.1875 C 201.117188 160.25 201 160.28125 200.886719 160.328125 C 200.808594 160.359375 200.730469 160.398438 200.648438 160.425781 C 200.386719 160.503906 200.117188 160.558594 199.851562 160.558594 C 199.832031 160.558594 199.820312 160.550781 199.804688 160.550781 C 199.597656 160.546875 199.390625 160.519531 199.1875 160.472656 C 199.117188 160.453125 199.050781 160.421875 198.976562 160.398438 C 198.835938 160.351562 198.699219 160.300781 198.566406 160.230469 C 198.488281 160.191406 198.417969 160.140625 198.34375 160.089844 C 198.230469 160.015625 198.117188 159.9375 198.015625 159.84375 C 197.941406 159.78125 197.878906 159.710938 197.8125 159.636719 C 197.765625 159.585938 197.710938 159.546875 197.667969 159.492188 L 123.945312 64.933594 C 118.378906 57.796875 108.019531 56.527344 100.847656 62.105469 C 93.683594 67.675781 92.375 78.015625 97.933594 85.15625 L 171.660156 179.722656 C 171.800781 179.902344 171.910156 180.09375 171.996094 180.292969 C 172.015625 180.332031 172.023438 180.367188 172.039062 180.40625 C 172.15625 180.703125 172.226562 181.011719 172.234375 181.324219 C 172.238281 181.363281 172.234375 181.394531 172.230469 181.433594 C 172.230469 181.75 172.179688 182.0625 172.070312 182.363281 C 172.054688 182.398438 172.039062 182.429688 172.023438 182.464844 C 171.898438 182.765625 171.726562 183.042969 171.496094 183.289062 C 171.484375 183.300781 171.480469 183.316406 171.46875 183.332031 C 171.425781 183.375 171.371094 183.410156 171.324219 183.453125 C 171.273438 183.5 171.234375 183.546875 171.179688 183.589844 C 171.164062 183.601562 171.144531 183.605469 171.125 183.617188 C 170.90625 183.78125 170.667969 183.910156 170.421875 184 C 170.371094 184.015625 170.324219 184.027344 170.273438 184.042969 C 170.015625 184.121094 169.753906 184.171875 169.488281 184.171875 C 169.488281 184.171875 169.488281 184.171875 169.484375 184.171875 C 169.484375 184.171875 169.480469 184.171875 169.480469 184.171875 C 169.167969 184.171875 168.863281 184.101562 168.570312 184 C 168.515625 183.980469 168.464844 183.964844 168.414062 183.945312 C 168.128906 183.824219 167.871094 183.65625 167.636719 183.445312 C 167.613281 183.425781 167.585938 183.417969 167.566406 183.398438 L 90.28125 108.878906 C 83.546875 103.097656 73.339844 103.714844 67.335938 110.34375 C 64.382812 113.605469 62.875 117.816406 63.09375 122.199219 C 63.3125 126.582031 65.226562 130.609375 68.480469 133.546875 C 68.492188 133.554688 68.496094 133.570312 68.507812 133.578125 C 68.515625 133.589844 68.53125 133.59375 68.542969 133.601562 L 141.035156 203.039062 C 141.050781 203.050781 141.054688 203.070312 141.066406 203.085938 C 141.304688 203.320312 141.488281 203.589844 141.621094 203.882812 C 141.640625 203.917969 141.65625 203.953125 141.671875 203.992188 C 141.792969 204.28125 141.855469 204.589844 141.871094 204.902344 C 141.871094 204.941406 141.875 204.980469 141.875 205.023438 C 141.878906 205.332031 141.824219 205.640625 141.71875 205.9375 C 141.703125 205.980469 141.691406 206.019531 141.675781 206.058594 C 141.589844 206.269531 141.484375 206.480469 141.34375 206.671875 C 141.292969 206.738281 141.226562 206.789062 141.171875 206.851562 C 141.148438 206.878906 141.140625 206.914062 141.117188 206.9375 C 141.078125 206.980469 141.027344 207.011719 140.984375 207.050781 C 140.917969 207.109375 140.851562 207.167969 140.785156 207.21875 C 140.6875 207.292969 140.582031 207.355469 140.476562 207.417969 C 140.410156 207.457031 140.34375 207.496094 140.273438 207.527344 C 140.148438 207.585938 140.019531 207.625 139.890625 207.664062 C 139.832031 207.679688 139.773438 207.707031 139.710938 207.71875 C 139.519531 207.761719 139.324219 207.785156 139.125 207.785156 C 138.808594 207.785156 138.492188 207.71875 138.191406 207.609375 C 138.09375 207.574219 138.007812 207.511719 137.914062 207.464844 C 137.765625 207.394531 137.613281 207.34375 137.480469 207.242188 L 72.726562 159.253906 C 65.398438 153.933594 55.085938 155.566406 49.730469 162.894531 C 47.132812 166.453125 46.074219 170.800781 46.757812 175.140625 C 47.433594 179.464844 49.757812 183.265625 53.300781 185.839844 "/></g><path style=" stroke:none;fill-rule:nonzero;fill:rgb(76.469421%,61.178589%,53.729248%);fill-opacity:1;" d="M 65.476562 239.582031 C 65.890625 239.804688 66.335938 239.910156 66.777344 239.910156 C 67.761719 239.910156 68.714844 239.382812 69.214844 238.453125 C 69.929688 237.109375 69.425781 235.441406 68.082031 234.722656 C 50.097656 225.113281 35.46875 209.65625 26.886719 191.203125 C 26.246094 189.820312 24.605469 189.21875 23.222656 189.863281 C 21.839844 190.503906 21.238281 192.144531 21.878906 193.523438 C 30.964844 213.058594 46.445312 229.414062 65.476562 239.582031 "/><path style=" stroke:none;fill-rule:nonzero;fill:rgb(76.469421%,61.178589%,53.729248%);fill-opacity:1;" d="M 60.871094 263.167969 C 61.285156 263.390625 61.730469 263.496094 62.171875 263.496094 C 63.15625 263.496094 64.109375 262.964844 64.609375 262.039062 C 65.328125 260.695312 64.820312 259.023438 63.476562 258.304688 C 37.429688 244.386719 16.238281 222 3.808594 195.269531 C 3.164062 193.886719 1.523438 193.289062 0.140625 193.929688 C -1.242188 194.570312 -1.84375 196.210938 -1.199219 197.59375 C 11.734375 225.398438 33.777344 248.6875 60.871094 263.167969 "/><path style=" stroke:none;fill-rule:nonzero;fill:rgb(76.469421%,61.178589%,53.729248%);fill-opacity:1;" d="M 187.273438 29.164062 C 205.253906 38.777344 219.882812 54.230469 228.464844 72.683594 C 228.933594 73.6875 229.929688 74.28125 230.972656 74.28125 C 231.359375 74.28125 231.753906 74.199219 232.132812 74.023438 C 233.515625 73.378906 234.113281 71.742188 233.472656 70.363281 C 224.390625 50.828125 208.90625 34.472656 189.875 24.304688 C 188.535156 23.585938 186.859375 24.09375 186.140625 25.433594 C 185.421875 26.777344 185.925781 28.445312 187.273438 29.164062 "/><path style=" stroke:none;fill-rule:nonzero;fill:rgb(76.469421%,61.178589%,53.729248%);fill-opacity:1;" d="M 191.875 5.582031 C 217.921875 19.5 239.113281 41.886719 251.546875 68.617188 C 252.011719 69.621094 253.011719 70.214844 254.050781 70.214844 C 254.441406 70.214844 254.835938 70.132812 255.210938 69.957031 C 256.59375 69.316406 257.195312 67.675781 256.550781 66.296875 C 243.621094 38.488281 221.578125 15.199219 194.480469 0.71875 C 193.140625 0.00390625 191.464844 0.507812 190.742188 1.851562 C 190.027344 3.191406 190.53125 4.863281 191.875 5.582031 "/></g></svg>
