<svg width="32" height="32" viewBox="0 0 32 32" fill="none" xmlns="http://www.w3.org/2000/svg">
<path d="M16 3C13.742 3.00057 11.5231 3.58911 9.5616 4.70767C7.60013 5.82624 5.96374 7.43629 4.81349 9.37935C3.66323 11.3224 3.03877 13.5315 3.00155 15.7892C2.96434 18.0469 3.51566 20.2753 4.60124 22.2553L3.53274 25.9946C3.43475 26.3376 3.43026 26.7005 3.51973 27.0458C3.60919 27.391 3.78937 27.7061 4.04157 27.9583C4.29378 28.2105 4.60884 28.3907 4.95411 28.4801C5.29938 28.5696 5.66229 28.5651 6.00524 28.4671L9.74474 27.3986C11.4825 28.3522 13.4153 28.8957 15.3954 28.9877C17.3754 29.0797 19.3503 28.7178 21.169 27.9295C22.9877 27.1412 24.6021 25.9475 25.8887 24.4397C27.1754 22.9318 28.1002 21.1497 28.5924 19.2296C29.0847 17.3095 29.1314 15.3023 28.729 13.3613C28.3265 11.4204 27.4856 9.59724 26.2705 8.03117C25.0554 6.46509 23.4983 5.1976 21.7182 4.32559C19.9381 3.45359 17.9822 3.00017 16 3ZM16 27C14.0245 27.0014 12.0852 26.47 10.3864 25.4619C10.2693 25.3922 10.1392 25.3472 10.004 25.3297C9.86891 25.3121 9.73163 25.3224 9.60062 25.3599L5.45599 26.544L6.64012 22.3995C6.67754 22.2685 6.68779 22.1312 6.67023 21.996C6.65266 21.8609 6.60767 21.7307 6.53799 21.6136C5.29908 19.5262 4.78532 17.0877 5.07674 14.6778C5.36817 12.268 6.44842 10.0222 8.14921 8.2903C9.85001 6.55839 12.0758 5.43762 14.48 5.10256C16.8842 4.7675 19.3316 5.23698 21.4411 6.43785C23.5507 7.63873 25.2038 9.50358 26.143 11.7419C27.0822 13.9802 27.2548 16.4663 26.6339 18.8129C26.0129 21.1596 24.6333 23.2349 22.7099 24.7157C20.7865 26.1966 18.4274 26.9997 16 27ZM17.5 16C17.5 16.2967 17.412 16.5867 17.2472 16.8334C17.0824 17.08 16.8481 17.2723 16.574 17.3858C16.2999 17.4993 15.9983 17.5291 15.7074 17.4712C15.4164 17.4133 15.1491 17.2704 14.9393 17.0607C14.7296 16.8509 14.5867 16.5836 14.5288 16.2926C14.4709 16.0017 14.5006 15.7001 14.6142 15.426C14.7277 15.1519 14.92 14.9176 15.1666 14.7528C15.4133 14.588 15.7033 14.5 16 14.5C16.3978 14.5 16.7793 14.658 17.0607 14.9393C17.342 15.2206 17.5 15.6022 17.5 16ZM11.5 16C11.5 16.2967 11.412 16.5867 11.2472 16.8334C11.0824 17.08 10.8481 17.2723 10.574 17.3858C10.2999 17.4993 9.99833 17.5291 9.70736 17.4712C9.41639 17.4133 9.14911 17.2704 8.93933 17.0607C8.72955 16.8509 8.58669 16.5836 8.52881 16.2926C8.47094 16.0017 8.50064 15.7001 8.61417 15.426C8.7277 15.1519 8.91996 14.9176 9.16664 14.7528C9.41331 14.588 9.70332 14.5 9.99999 14.5C10.3978 14.5 10.7793 14.658 11.0607 14.9393C11.342 15.2206 11.5 15.6022 11.5 16ZM23.5 16C23.5 16.2967 23.412 16.5867 23.2472 16.8334C23.0824 17.08 22.8481 17.2723 22.574 17.3858C22.2999 17.4993 21.9983 17.5291 21.7074 17.4712C21.4164 17.4133 21.1491 17.2704 20.9393 17.0607C20.7296 16.8509 20.5867 16.5836 20.5288 16.2926C20.4709 16.0017 20.5006 15.7001 20.6142 15.426C20.7277 15.1519 20.92 14.9176 21.1666 14.7528C21.4133 14.588 21.7033 14.5 22 14.5C22.3978 14.5 22.7793 14.658 23.0607 14.9393C23.342 15.2206 23.5 15.6022 23.5 16Z" fill="#6A6A6A"/>
</svg>
