<svg width="80" height="80" viewBox="0 0 80 80" fill="none" xmlns="http://www.w3.org/2000/svg">
<path d="M40 7.5C34.355 7.50143 28.8077 8.97277 23.904 11.7692C19.0004 14.5656 14.9094 18.5907 12.0338 23.4484C9.15813 28.306 7.59697 33.8287 7.50393 39.4729C7.41089 45.1172 8.78918 50.6884 11.5032 55.6381L8.8319 64.9866C8.58693 65.8439 8.5757 66.7512 8.79937 67.6144C9.02303 68.4776 9.47346 69.2652 10.104 69.8957C10.7345 70.5262 11.5221 70.9767 12.3853 71.2003C13.2485 71.424 14.1558 71.4128 15.0132 71.1678L24.3619 68.4966C28.7063 70.8804 33.5383 72.2393 38.4885 72.4693C43.4386 72.6994 48.3758 71.7944 52.9226 69.8238C57.4694 67.8531 61.5053 64.8688 64.7219 61.0991C67.9385 57.3295 70.2505 52.8742 71.4812 48.0739C72.7118 43.2737 72.8286 38.2556 71.8225 33.4034C70.8164 28.5511 68.7141 23.9931 65.6763 20.0779C62.6385 16.1627 58.7457 12.994 54.2955 10.814C49.8453 8.63398 44.9555 7.50043 40 7.5ZM40 67.5C35.0613 67.5035 30.2131 66.1751 25.966 63.6547C25.6732 63.4805 25.3479 63.3681 25.0101 63.3242C24.6723 63.2804 24.3291 63.306 24.0016 63.3997L13.64 66.36L16.6003 55.9987C16.6939 55.6712 16.7195 55.3279 16.6756 54.99C16.6317 54.6522 16.5192 54.3269 16.345 54.0341C13.2477 48.8155 11.9633 42.7191 12.6919 36.6946C13.4205 30.67 16.1211 25.0555 20.3731 20.7258C24.6251 16.396 30.1897 13.594 36.2 12.7564C42.2104 11.9188 48.3291 13.0924 53.6029 16.0946C58.8767 19.0968 63.0096 23.7589 65.3576 29.3547C67.7057 34.9505 68.1371 41.1658 66.5847 47.0324C65.0323 52.8989 61.5832 58.0873 56.7748 61.7894C51.9663 65.4914 46.0685 67.4992 40 67.5ZM43.75 40C43.75 40.7417 43.5301 41.4667 43.118 42.0834C42.706 42.7001 42.1203 43.1807 41.4351 43.4645C40.7499 43.7484 39.9959 43.8226 39.2684 43.6779C38.541 43.5333 37.8728 43.1761 37.3484 42.6516C36.8239 42.1272 36.4668 41.459 36.3221 40.7316C36.1774 40.0042 36.2517 39.2502 36.5355 38.5649C36.8193 37.8797 37.3 37.294 37.9166 36.882C38.5333 36.4699 39.2584 36.25 40 36.25C40.9946 36.25 41.9484 36.6451 42.6517 37.3483C43.3549 38.0516 43.75 39.0054 43.75 40ZM28.75 40C28.75 40.7417 28.5301 41.4667 28.118 42.0834C27.706 42.7001 27.1203 43.1807 26.4351 43.4645C25.7499 43.7484 24.9959 43.8226 24.2684 43.6779C23.541 43.5333 22.8728 43.1761 22.3484 42.6516C21.8239 42.1272 21.4668 41.459 21.3221 40.7316C21.1774 40.0042 21.2516 39.2502 21.5355 38.5649C21.8193 37.8797 22.3 37.294 22.9166 36.882C23.5333 36.4699 24.2583 36.25 25 36.25C25.9946 36.25 26.9484 36.6451 27.6517 37.3483C28.3549 38.0516 28.75 39.0054 28.75 40ZM58.75 40C58.75 40.7417 58.5301 41.4667 58.118 42.0834C57.706 42.7001 57.1203 43.1807 56.4351 43.4645C55.7499 43.7484 54.9959 43.8226 54.2684 43.6779C53.541 43.5333 52.8728 43.1761 52.3484 42.6516C51.8239 42.1272 51.4668 41.459 51.3221 40.7316C51.1774 40.0042 51.2517 39.2502 51.5355 38.5649C51.8193 37.8797 52.3 37.294 52.9166 36.882C53.5333 36.4699 54.2584 36.25 55 36.25C55.9946 36.25 56.9484 36.6451 57.6517 37.3483C58.3549 38.0516 58.75 39.0054 58.75 40Z" fill="#F69896"/>
</svg>
