<svg width="206" height="206" viewBox="0 0 206 206" fill="none" xmlns="http://www.w3.org/2000/svg">
<path d="M96.5755 33.372L158.805 46.247C161.294 46.762 163.083 48.9594 163.083 51.5V154.5C163.083 155.734 162.658 156.931 161.878 157.887C161.099 158.844 160.013 159.503 158.805 159.753L96.5755 172.628C95.7961 172.789 94.9907 172.775 94.2175 172.586C93.4444 172.397 92.7229 172.039 92.1054 171.537C91.4879 171.035 90.9899 170.402 90.6474 169.683C90.3048 168.965 90.1264 168.179 90.1251 167.384V38.625C90.1245 37.8281 90.3015 37.0411 90.6432 36.3211C90.9849 35.6012 91.4827 34.9664 92.1005 34.4629C92.7182 33.9595 93.4403 33.5999 94.2144 33.4105C94.9885 33.2211 95.795 33.2064 96.5755 33.3677V33.372ZM77.2501 42.9167V53.6459H53.6459V152.354H77.2501V163.083H48.2813C46.954 163.083 45.6739 162.59 44.6886 161.701C43.7033 160.812 43.0827 159.588 42.9468 158.268L42.9167 157.723V48.2856C42.9167 45.5046 45.0282 43.2214 47.732 42.9467L48.2813 42.9167H77.2501ZM100.854 45.217V160.792L152.354 150.135V55.869L100.854 45.217V45.217ZM113.729 96.5625C115.437 96.5625 117.074 97.2408 118.281 98.448C119.489 99.6553 120.167 101.293 120.167 103C120.167 104.707 119.489 106.345 118.281 107.552C117.074 108.759 115.437 109.438 113.729 109.438C112.022 109.438 110.385 108.759 109.177 107.552C107.97 106.345 107.292 104.707 107.292 103C107.292 101.293 107.97 99.6553 109.177 98.448C110.385 97.2408 112.022 96.5625 113.729 96.5625V96.5625Z" fill="#F8FCFB"/>
</svg>
