<svg width="80" height="80" viewBox="0 0 80 80" fill="none" xmlns="http://www.w3.org/2000/svg">
<path d="M36.565 6.30995C37.4933 5.43227 38.7224 4.94324 40 4.94324C41.2776 4.94324 42.5067 5.43227 43.435 6.30995L67.655 29.205C69.155 30.62 70 32.595 70 34.655V62.505C70 64.4941 69.2098 66.4017 67.8033 67.8083C66.3968 69.2148 64.4891 70.005 62.5 70.005H52.5C51.5147 70.005 50.539 69.8108 49.6287 69.4336C48.7185 69.0563 47.8914 68.5035 47.1949 67.8065C46.4984 67.1095 45.9461 66.2821 45.5695 65.3716C45.1929 64.4611 44.9993 63.4853 45 62.5V50C45 49.3369 44.7366 48.701 44.2678 48.2322C43.7989 47.7633 43.163 47.5 42.5 47.5H37.5C36.837 47.5 36.2011 47.7633 35.7322 48.2322C35.2634 48.701 35 49.3369 35 50V62.5C35 64.4891 34.2098 66.3967 32.8033 67.8033C31.3968 69.2098 29.4891 70 27.5 70H17.5C15.5109 70 13.6032 69.2098 12.1967 67.8033C10.7902 66.3967 10 64.4891 10 62.5V34.6499C10 32.5899 10.85 30.615 12.35 29.2L36.565 6.29995V6.30995ZM40 9.93995L15.78 32.8399C15.5341 33.073 15.3382 33.3537 15.2041 33.6648C15.07 33.976 15.0006 34.3111 15 34.6499V62.5C15 63.163 15.2634 63.7989 15.7322 64.2677C16.2011 64.7366 16.837 65 17.5 65H27.5C28.163 65 28.7989 64.7366 29.2678 64.2677C29.7366 63.7989 30 63.163 30 62.5V50C30 48.0108 30.7902 46.1032 32.1967 44.6966C33.6032 43.2901 35.5109 42.4999 37.5 42.4999H42.5C44.4891 42.4999 46.3968 43.2901 47.8033 44.6966C49.2098 46.1032 50 48.0108 50 50V62.5C50 63.163 50.2634 63.7989 50.7322 64.2677C51.2011 64.7366 51.837 65 52.5 65H62.5C63.163 65 63.7989 64.7366 64.2678 64.2677C64.7366 63.7989 65 63.163 65 62.5V34.6499C65.0001 34.3103 64.931 33.9742 64.7969 33.6621C64.6628 33.3501 64.4665 33.0686 64.22 32.8349L40 9.93995Z" fill="#F69896"/>
</svg>
