<svg width="56" height="56" viewBox="0 0 56 56" fill="none" xmlns="http://www.w3.org/2000/svg">
<path d="M56 27.972C56 12.53 43.456 0 28 0C12.544 0 0 12.53 0 27.972C0 36.477 3.864 44.142 9.912 49.287C9.968 49.343 10.024 49.343 10.024 49.399C10.528 49.791 11.032 50.183 11.592 50.575C11.872 50.743 12.096 50.9635 12.376 51.1875C17.0032 54.3248 22.4655 56.0013 28.056 56C33.6465 56.0013 39.1088 54.3248 43.736 51.1875C44.016 51.0195 44.24 50.799 44.52 50.6275C45.024 50.239 45.584 49.847 46.088 49.455C46.144 49.399 46.2 49.399 46.2 49.343C52.136 44.1385 56 36.477 56 27.972ZM28 52.4755C22.736 52.4755 17.92 50.7955 13.944 47.999C14 47.551 14.112 47.1065 14.224 46.6585C14.5577 45.4444 15.0471 44.2785 15.68 43.19C16.296 42.126 17.024 41.174 17.92 40.334C18.76 39.494 19.768 38.7135 20.776 38.0975C21.84 37.4815 22.96 37.0335 24.192 36.6975C25.4336 36.3628 26.7141 36.1945 28 36.197C31.8173 36.17 35.4943 37.6342 38.248 40.278C39.536 41.566 40.544 43.078 41.272 44.8105C41.664 45.8185 41.944 46.8825 42.112 47.999C37.9791 50.9046 33.052 52.4675 28 52.4755ZM19.432 26.5755C18.9386 25.4458 18.6904 24.2242 18.704 22.9915C18.704 21.763 18.928 20.531 19.432 19.411C19.936 18.291 20.608 17.2865 21.448 16.4465C22.288 15.6065 23.296 14.938 24.416 14.434C25.536 13.93 26.768 13.706 28 13.706C29.288 13.706 30.464 13.93 31.584 14.434C32.704 14.938 33.712 15.61 34.552 16.4465C35.392 17.2865 36.064 18.2945 36.568 19.411C37.072 20.531 37.296 21.763 37.296 22.9915C37.296 24.2795 37.072 25.4555 36.568 26.572C36.0816 27.6754 35.3985 28.6811 34.552 29.54C33.6929 30.3852 32.6872 31.0671 31.584 31.5525C29.2699 32.5035 26.6741 32.5035 24.36 31.5525C23.2568 31.0671 22.2511 30.3852 21.392 29.54C20.5444 28.6937 19.8775 27.6839 19.432 26.572V26.5755ZM45.416 45.1465C45.416 45.0345 45.36 44.9785 45.36 44.8665C44.8092 43.1145 43.9974 41.4555 42.952 39.9455C41.9056 38.4243 40.6196 37.0828 39.144 35.973C38.0171 35.1252 36.7956 34.4111 35.504 33.845C36.0916 33.4574 36.636 33.008 37.128 32.5045C37.9629 31.6803 38.6961 30.759 39.312 29.7605C40.5523 27.7228 41.1928 25.3767 41.16 22.9915C41.1773 21.2258 40.8343 19.4751 40.152 17.8465C39.4783 16.2772 38.5087 14.8524 37.296 13.65C36.0851 12.4601 34.6601 11.5101 33.096 10.85C31.4647 10.1689 29.7117 9.8271 27.944 9.8455C26.176 9.82821 24.4231 10.1712 22.792 10.8535C21.2144 11.5122 19.7859 12.4823 18.592 13.706C17.4021 14.9156 16.4521 16.3395 15.792 17.9025C15.1097 19.5311 14.7667 21.2818 14.784 23.0475C14.784 24.2795 14.952 25.4555 15.288 26.572C15.624 27.748 16.072 28.812 16.688 29.8165C17.248 30.8245 18.032 31.7205 18.872 32.5605C19.376 33.0645 19.936 33.509 20.552 33.901C19.2564 34.4822 18.0345 35.2154 16.912 36.085C15.456 37.205 14.168 38.5455 13.104 40.0015C12.0479 41.5052 11.2353 43.1659 10.696 44.9225C10.64 45.0345 10.64 45.1465 10.64 45.2025C6.216 40.726 3.472 34.685 3.472 27.972C3.472 14.49 14.504 3.4685 28 3.4685C41.496 3.4685 52.528 14.49 52.528 27.972C52.5207 34.4119 49.9636 40.5868 45.416 45.1465Z" fill="#F69896"/>
</svg>
