<svg width="32" height="32" viewBox="0 0 32 32" fill="none" xmlns="http://www.w3.org/2000/svg">
<path d="M30 15.986C30 8.265 23.728 2 16 2C8.272 2 2 8.265 2 15.986C2 20.2385 3.932 24.071 6.956 26.6435C6.984 26.6715 7.012 26.6715 7.012 26.6995C7.264 26.8955 7.516 27.0915 7.796 27.2875C7.936 27.3715 8.048 27.4817 8.188 27.5938C10.5016 29.1624 13.2327 30.0006 16.028 30C18.8233 30.0006 21.5544 29.1624 23.868 27.5938C24.008 27.5097 24.12 27.3995 24.26 27.3138C24.512 27.1195 24.792 26.9235 25.044 26.7275C25.072 26.6995 25.1 26.6995 25.1 26.6715C28.068 24.0692 30 20.2385 30 15.986V15.986ZM16 28.2378C13.368 28.2378 10.96 27.3977 8.972 25.9995C9 25.7755 9.056 25.5533 9.112 25.3293C9.27884 24.7222 9.52354 24.1393 9.84 23.595C10.148 23.063 10.512 22.587 10.96 22.167C11.38 21.747 11.884 21.3568 12.388 21.0488C12.92 20.7408 13.48 20.5167 14.096 20.3487C14.7168 20.1814 15.3571 20.0973 16 20.0985C17.9086 20.085 19.7471 20.8171 21.124 22.139C21.768 22.783 22.272 23.539 22.636 24.4053C22.832 24.9093 22.972 25.4412 23.056 25.9995C20.9896 27.4523 18.526 28.2337 16 28.2378ZM11.716 15.2877C11.4693 14.7229 11.3452 14.1121 11.352 13.4957C11.352 12.8815 11.464 12.2655 11.716 11.7055C11.968 11.1455 12.304 10.6432 12.724 10.2232C13.144 9.80325 13.648 9.469 14.208 9.217C14.768 8.965 15.384 8.853 16 8.853C16.644 8.853 17.232 8.965 17.792 9.217C18.352 9.469 18.856 9.805 19.276 10.2232C19.696 10.6432 20.032 11.1472 20.284 11.7055C20.536 12.2655 20.648 12.8815 20.648 13.4957C20.648 14.1397 20.536 14.7278 20.284 15.286C20.0408 15.8377 19.6992 16.3406 19.276 16.77C18.8464 17.1926 18.3436 17.5336 17.792 17.7763C16.6349 18.2517 15.3371 18.2517 14.18 17.7763C13.6284 17.5336 13.1256 17.1926 12.696 16.77C12.2722 16.3468 11.9388 15.8419 11.716 15.286V15.2877ZM24.708 24.5733C24.708 24.5173 24.68 24.4893 24.68 24.4333C24.4046 23.5572 23.9987 22.7277 23.476 21.9728C22.9528 21.2122 22.3098 20.5414 21.572 19.9865C21.0085 19.5626 20.3978 19.2056 19.752 18.9225C20.0458 18.7287 20.318 18.504 20.564 18.2522C20.9814 17.8401 21.3481 17.3795 21.656 16.8803C22.2761 15.8614 22.5964 14.6884 22.58 13.4957C22.5887 12.6129 22.4172 11.7376 22.076 10.9232C21.7392 10.1386 21.2543 9.42622 20.648 8.825C20.0426 8.23005 19.33 7.75503 18.548 7.425C17.7323 7.08444 16.8559 6.91355 15.972 6.92275C15.088 6.9141 14.2115 7.08559 13.396 7.42675C12.6072 7.75608 11.8929 8.24117 11.296 8.853C10.7011 9.45778 10.226 10.1697 9.896 10.9512C9.55484 11.7656 9.38334 12.6409 9.392 13.5238C9.392 14.1398 9.476 14.7278 9.644 15.286C9.812 15.874 10.036 16.406 10.344 16.9083C10.624 17.4123 11.016 17.8603 11.436 18.2803C11.688 18.5323 11.968 18.7545 12.276 18.9505C11.6282 19.2411 11.0173 19.6077 10.456 20.0425C9.728 20.6025 9.084 21.2727 8.552 22.0007C8.02395 22.7526 7.61764 23.5829 7.348 24.4613C7.32 24.5173 7.32 24.5732 7.32 24.6012C5.108 22.363 3.736 19.3425 3.736 15.986C3.736 9.245 9.252 3.73425 16 3.73425C22.748 3.73425 28.264 9.245 28.264 15.986C28.2603 19.2059 26.9818 22.2934 24.708 24.5733V24.5733Z" fill="#6A6A6A"/>
</svg>
