<svg width="80" height="80" viewBox="0 0 80 80" fill="none" xmlns="http://www.w3.org/2000/svg">
<path d="M80 39.96C80 17.9 62.08 0 40 0C17.92 0 0 17.9 0 39.96C0 52.11 5.52 63.06 14.16 70.41C14.24 70.49 14.32 70.49 14.32 70.57C15.04 71.13 15.76 71.69 16.56 72.25C16.96 72.49 17.28 72.805 17.68 73.125C24.2903 77.6068 32.0935 80.0018 40.08 80C48.0664 80.0018 55.8697 77.6068 62.48 73.125C62.88 72.885 63.2 72.57 63.6 72.325C64.32 71.77 65.12 71.21 65.84 70.65C65.92 70.57 66 70.57 66 70.49C74.48 63.055 80 52.11 80 39.96V39.96ZM40 74.965C32.48 74.965 25.6 72.565 19.92 68.57C20 67.93 20.16 67.295 20.32 66.655C20.7967 64.9205 21.4958 63.255 22.4 61.7C23.28 60.18 24.32 58.82 25.6 57.62C26.8 56.42 28.24 55.305 29.68 54.425C31.2 53.545 32.8 52.905 34.56 52.425C36.3337 51.9469 38.163 51.7065 40 51.71C45.4533 51.6714 50.7061 53.7632 54.64 57.54C56.48 59.38 57.92 61.54 58.96 64.015C59.52 65.455 59.92 66.975 60.16 68.57C54.2559 72.7208 47.2172 74.9536 40 74.965ZM27.76 37.965C27.0551 36.3511 26.7006 34.606 26.72 32.845C26.72 31.09 27.04 29.33 27.76 27.73C28.48 26.13 29.44 24.695 30.64 23.495C31.84 22.295 33.28 21.34 34.88 20.62C36.48 19.9 38.24 19.58 40 19.58C41.84 19.58 43.52 19.9 45.12 20.62C46.72 21.34 48.16 22.3 49.36 23.495C50.56 24.695 51.52 26.135 52.24 27.73C52.96 29.33 53.28 31.09 53.28 32.845C53.28 34.685 52.96 36.365 52.24 37.96C51.5451 39.5363 50.5692 40.9731 49.36 42.2C48.1326 43.4075 46.6959 44.3816 45.12 45.075C41.8141 46.4336 38.1059 46.4336 34.8 45.075C33.2241 44.3816 31.7874 43.4075 30.56 42.2C29.3491 40.9909 28.3965 39.5484 27.76 37.96V37.965ZM64.88 64.495C64.88 64.335 64.8 64.255 64.8 64.095C64.0132 61.5921 62.8535 59.2221 61.36 57.065C59.8651 54.8919 58.028 52.9754 55.92 51.39C54.3101 50.1789 52.5651 49.1587 50.72 48.35C51.5594 47.7962 52.3372 47.1542 53.04 46.435C54.2327 45.2575 55.2802 43.9415 56.16 42.515C57.9318 39.604 58.8468 36.2525 58.8 32.845C58.8247 30.3226 58.3348 27.8216 57.36 25.495C56.3976 23.2532 55.0124 21.2178 53.28 19.5C51.5502 17.8002 49.5144 16.443 47.28 15.5C44.9495 14.527 42.4453 14.0387 39.92 14.065C37.3943 14.0403 34.8901 14.5303 32.56 15.505C30.3063 16.4459 28.2655 17.8319 26.56 19.58C24.8602 21.3079 23.503 23.3421 22.56 25.575C21.5852 27.9016 21.0953 30.4026 21.12 32.925C21.12 34.685 21.36 36.365 21.84 37.96C22.32 39.64 22.96 41.16 23.84 42.595C24.64 44.035 25.76 45.315 26.96 46.515C27.68 47.235 28.48 47.87 29.36 48.43C27.5092 49.2603 25.7636 50.3077 24.16 51.55C22.08 53.15 20.24 55.065 18.72 57.145C17.2113 59.2932 16.0504 61.6656 15.28 64.175C15.2 64.335 15.2 64.495 15.2 64.575C8.88 58.18 4.96 49.55 4.96 39.96C4.96 20.7 20.72 4.955 40 4.955C59.28 4.955 75.04 20.7 75.04 39.96C75.0295 49.1598 71.3766 57.9811 64.88 64.495V64.495Z" fill="#F69896"/>
</svg>
