<?xml version="1.0" encoding="UTF-8"?>
<svg xmlns="http://www.w3.org/2000/svg" xmlns:xlink="http://www.w3.org/1999/xlink" width="375pt" height="374.999991pt" viewBox="0 0 375 374.999991" version="1.2">
<g id="surface1">
<path style=" stroke:none;fill-rule:nonzero;fill:rgb(76.469421%,61.178589%,53.729248%);fill-opacity:1;" d="M 347.359375 134.542969 C 347.242188 133.988281 347.066406 133.449219 346.835938 132.929688 C 346.601562 132.410156 346.320312 131.921875 345.984375 131.464844 C 345.644531 131.003906 345.265625 130.585938 344.839844 130.207031 C 344.417969 129.828125 343.957031 129.5 343.460938 129.21875 C 342.96875 128.9375 342.449219 128.710938 341.90625 128.539062 C 341.363281 128.367188 340.808594 128.257812 340.242188 128.203125 C 339.675781 128.148438 339.109375 128.15625 338.546875 128.222656 C 337.980469 128.289062 337.429688 128.414062 336.890625 128.597656 C 336.351562 128.78125 335.839844 129.019531 335.351562 129.308594 C 334.863281 129.601562 334.410156 129.941406 333.992188 130.332031 C 333.578125 130.71875 333.207031 131.144531 332.882812 131.613281 C 332.554688 132.078125 332.28125 132.574219 332.0625 133.097656 C 331.84375 133.621094 331.679688 134.164062 331.574219 134.722656 C 331.46875 135.28125 331.421875 135.847656 331.4375 136.414062 C 331.449219 136.984375 331.523438 137.546875 331.65625 138.097656 C 331.789062 138.652344 331.976562 139.183594 332.222656 139.699219 C 333.15625 142.558594 334.003906 145.445312 334.765625 148.355469 C 335.527344 151.265625 336.203125 154.195312 336.792969 157.148438 C 337.382812 160.097656 337.886719 163.0625 338.300781 166.042969 C 338.71875 169.023438 339.042969 172.011719 339.285156 175.011719 C 339.523438 178.011719 339.675781 181.015625 339.738281 184.023438 C 339.800781 187.03125 339.773438 190.039062 339.660156 193.046875 C 339.542969 196.054688 339.339844 199.054688 339.050781 202.046875 C 338.757812 205.042969 338.378906 208.027344 337.910156 211 C 337.445312 213.972656 336.890625 216.929688 336.25 219.867188 C 335.609375 222.808594 334.882812 225.726562 334.070312 228.625 C 333.253906 231.519531 332.359375 234.390625 331.375 237.234375 C 330.394531 240.078125 329.328125 242.890625 328.183594 245.671875 C 327.035156 248.457031 325.804688 251.199219 324.496094 253.910156 C 323.1875 256.617188 321.800781 259.289062 320.332031 261.914062 C 318.867188 264.542969 317.324219 267.125 315.707031 269.660156 C 314.089844 272.199219 312.398438 274.683594 310.632812 277.121094 C 308.867188 279.558594 307.03125 281.941406 305.128906 284.269531 C 303.222656 286.601562 301.25 288.871094 299.210938 291.082031 C 297.171875 293.296875 295.070312 295.449219 292.90625 297.535156 C 290.738281 299.625 288.515625 301.648438 286.230469 303.609375 C 283.945312 305.566406 281.605469 307.457031 279.210938 309.277344 C 276.8125 311.097656 274.367188 312.84375 271.867188 314.519531 C 269.367188 316.195312 266.824219 317.796875 264.230469 319.324219 C 261.636719 320.851562 259 322.300781 256.324219 323.671875 C 253.644531 325.042969 250.925781 326.332031 248.171875 327.542969 C 245.417969 328.753906 242.632812 329.882812 239.808594 330.929688 C 236.988281 331.980469 234.140625 332.941406 231.261719 333.820312 C 228.386719 334.699219 225.484375 335.496094 222.558594 336.203125 C 219.636719 336.910156 216.691406 337.53125 213.730469 338.070312 C 210.769531 338.605469 207.796875 339.050781 204.808594 339.410156 C 201.820312 339.773438 198.828125 340.042969 195.824219 340.226562 C 192.820312 340.410156 189.8125 340.507812 186.804688 340.511719 C 181.601562 340.511719 176.414062 340.246094 171.234375 339.714844 C 166.058594 339.183594 160.925781 338.386719 155.832031 337.328125 C 150.734375 336.269531 145.707031 334.953125 140.75 333.378906 C 135.789062 331.804688 130.921875 329.984375 126.148438 327.910156 C 121.378906 325.839844 116.722656 323.527344 112.1875 320.980469 C 107.648438 318.429688 103.257812 315.65625 99.003906 312.65625 C 94.753906 309.65625 90.664062 306.449219 86.742188 303.03125 C 82.820312 299.613281 79.082031 296.003906 75.527344 292.203125 L 122.390625 292.203125 C 122.917969 292.203125 123.441406 292.148438 123.960938 292.046875 C 124.480469 291.945312 124.984375 291.789062 125.472656 291.589844 C 125.960938 291.386719 126.421875 291.136719 126.863281 290.84375 C 127.300781 290.550781 127.710938 290.21875 128.082031 289.84375 C 128.457031 289.46875 128.789062 289.0625 129.085938 288.621094 C 129.378906 288.183594 129.625 287.71875 129.828125 287.230469 C 130.03125 286.742188 130.183594 286.238281 130.285156 285.71875 C 130.390625 285.203125 130.441406 284.679688 130.441406 284.148438 C 130.441406 283.621094 130.390625 283.097656 130.285156 282.578125 C 130.183594 282.058594 130.03125 281.554688 129.828125 281.066406 C 129.625 280.578125 129.378906 280.117188 129.085938 279.675781 C 128.789062 279.238281 128.457031 278.828125 128.082031 278.457031 C 127.710938 278.082031 127.300781 277.75 126.863281 277.453125 C 126.421875 277.160156 125.960938 276.914062 125.472656 276.710938 C 124.984375 276.507812 124.480469 276.355469 123.960938 276.253906 C 123.441406 276.148438 122.917969 276.097656 122.390625 276.097656 L 57.972656 276.097656 C 57.445312 276.097656 56.921875 276.148438 56.402344 276.253906 C 55.882812 276.355469 55.382812 276.507812 54.894531 276.710938 C 54.402344 276.914062 53.941406 277.160156 53.5 277.453125 C 53.0625 277.75 52.652344 278.082031 52.28125 278.457031 C 51.90625 278.828125 51.574219 279.238281 51.277344 279.675781 C 50.984375 280.117188 50.738281 280.578125 50.535156 281.066406 C 50.332031 281.554688 50.179688 282.058594 50.078125 282.578125 C 49.972656 283.097656 49.921875 283.621094 49.921875 284.148438 L 49.921875 348.566406 C 49.921875 349.09375 49.972656 349.617188 50.078125 350.136719 C 50.179688 350.65625 50.332031 351.15625 50.535156 351.644531 C 50.738281 352.136719 50.984375 352.597656 51.277344 353.039062 C 51.574219 353.476562 51.90625 353.886719 52.28125 354.257812 C 52.652344 354.632812 53.0625 354.964844 53.5 355.261719 C 53.941406 355.554688 54.402344 355.800781 54.894531 356.003906 C 55.382812 356.207031 55.882812 356.359375 56.402344 356.460938 C 56.921875 356.566406 57.445312 356.617188 57.972656 356.617188 C 58.503906 356.617188 59.027344 356.566406 59.542969 356.460938 C 60.0625 356.359375 60.566406 356.207031 61.054688 356.003906 C 61.542969 355.800781 62.007812 355.554688 62.449219 355.261719 C 62.886719 354.964844 63.292969 354.632812 63.667969 354.257812 C 64.042969 353.886719 64.375 353.476562 64.667969 353.039062 C 64.960938 352.597656 65.210938 352.136719 65.414062 351.644531 C 65.617188 351.15625 65.769531 350.65625 65.871094 350.136719 C 65.972656 349.617188 66.027344 349.09375 66.027344 348.566406 L 66.027344 305.566406 C 67.675781 307.261719 69.363281 308.921875 71.085938 310.542969 C 72.804688 312.167969 74.5625 313.753906 76.347656 315.304688 C 78.136719 316.855469 79.957031 318.367188 81.808594 319.839844 C 83.660156 321.3125 85.539062 322.746094 87.453125 324.140625 C 89.363281 325.535156 91.304688 326.886719 93.273438 328.199219 C 95.242188 329.515625 97.234375 330.785156 99.257812 332.011719 C 101.28125 333.242188 103.328125 334.429688 105.398438 335.570312 C 107.46875 336.714844 109.566406 337.8125 111.683594 338.867188 C 113.800781 339.921875 115.941406 340.933594 118.101562 341.898438 C 120.261719 342.863281 122.441406 343.78125 124.640625 344.65625 C 126.839844 345.527344 129.054688 346.355469 131.289062 347.136719 C 133.523438 347.917969 135.773438 348.648438 138.035156 349.335938 C 140.300781 350.019531 142.578125 350.660156 144.871094 351.25 C 147.160156 351.839844 149.464844 352.378906 151.777344 352.875 C 154.09375 353.367188 156.414062 353.8125 158.75 354.207031 C 161.082031 354.601562 163.421875 354.949219 165.769531 355.246094 C 168.117188 355.542969 170.46875 355.792969 172.828125 355.992188 C 175.183594 356.1875 177.546875 356.335938 179.910156 356.4375 C 182.273438 356.535156 184.636719 356.585938 187.003906 356.585938 C 189.371094 356.585938 191.734375 356.535156 194.097656 356.4375 C 196.464844 356.335938 198.824219 356.1875 201.183594 355.988281 C 203.539062 355.789062 205.890625 355.542969 208.238281 355.246094 C 210.585938 354.949219 212.925781 354.601562 215.257812 354.203125 C 217.59375 353.808594 219.914062 353.363281 222.230469 352.871094 C 224.542969 352.378906 226.847656 351.835938 229.136719 351.246094 C 231.429688 350.65625 233.707031 350.015625 235.972656 349.332031 C 238.234375 348.644531 240.484375 347.910156 242.71875 347.132812 C 244.953125 346.351562 247.167969 345.523438 249.367188 344.648438 C 251.566406 343.777344 253.746094 342.859375 255.90625 341.890625 C 258.066406 340.925781 260.207031 339.917969 262.324219 338.863281 C 264.441406 337.808594 266.535156 336.707031 268.609375 335.566406 C 270.679688 334.421875 272.726562 333.234375 274.75 332.007812 C 276.769531 330.777344 278.765625 329.507812 280.734375 328.195312 C 282.703125 326.878906 284.640625 325.527344 286.554688 324.132812 C 288.464844 322.738281 290.347656 321.304688 292.199219 319.832031 C 294.050781 318.355469 295.867188 316.84375 297.65625 315.296875 C 299.445312 313.746094 301.199219 312.160156 302.917969 310.535156 C 304.640625 308.910156 306.328125 307.253906 307.976562 305.558594 C 309.628906 303.863281 311.246094 302.136719 312.824219 300.371094 C 314.402344 298.609375 315.941406 296.816406 317.445312 294.988281 C 318.949219 293.160156 320.414062 291.304688 321.839844 289.414062 C 323.265625 287.527344 324.648438 285.609375 325.996094 283.660156 C 327.339844 281.714844 328.640625 279.742188 329.902344 277.738281 C 331.164062 275.738281 332.386719 273.710938 333.5625 271.65625 C 334.738281 269.605469 335.871094 267.527344 336.960938 265.425781 C 338.050781 263.328125 339.09375 261.203125 340.09375 259.058594 C 341.09375 256.914062 342.050781 254.75 342.957031 252.566406 C 343.867188 250.382812 344.730469 248.179688 345.546875 245.960938 C 346.363281 243.738281 347.132812 241.5 347.855469 239.25 C 348.578125 236.996094 349.253906 234.726562 349.882812 232.445312 C 350.507812 230.164062 351.085938 227.871094 351.617188 225.566406 C 352.148438 223.261719 352.632812 220.945312 353.066406 218.617188 C 353.5 216.292969 353.882812 213.957031 354.21875 211.617188 C 354.554688 209.273438 354.839844 206.925781 355.078125 204.570312 C 355.316406 202.21875 355.503906 199.859375 355.640625 197.496094 C 355.777344 195.136719 355.867188 192.773438 355.90625 190.40625 C 355.945312 188.039062 355.933594 185.675781 355.871094 183.308594 C 355.808594 180.945312 355.699219 178.582031 355.539062 176.21875 C 355.378906 173.859375 355.171875 171.503906 354.910156 169.152344 C 354.652344 166.800781 354.34375 164.453125 353.984375 162.113281 C 353.628906 159.777344 353.222656 157.445312 352.765625 155.125 C 352.308594 152.800781 351.804688 150.492188 351.253906 148.191406 C 350.699219 145.890625 350.097656 143.601562 349.449219 141.328125 C 348.800781 139.050781 348.105469 136.789062 347.359375 134.542969 Z M 347.359375 134.542969 "/>
<path style=" stroke:none;fill-rule:nonzero;fill:rgb(90.589905%,69.018555%,62.348938%);fill-opacity:1;" d="M 315.636719 18.433594 C 315.109375 18.433594 314.582031 18.488281 314.066406 18.589844 C 313.546875 18.691406 313.042969 18.847656 312.554688 19.046875 C 312.066406 19.25 311.601562 19.5 311.164062 19.792969 C 310.722656 20.085938 310.316406 20.417969 309.941406 20.792969 C 309.570312 21.167969 309.234375 21.574219 308.941406 22.015625 C 308.648438 22.453125 308.398438 22.917969 308.199219 23.40625 C 307.996094 23.894531 307.84375 24.398438 307.738281 24.917969 C 307.636719 25.433594 307.585938 25.957031 307.585938 26.488281 L 307.585938 69.484375 C 305.90625 67.773438 304.191406 66.101562 302.441406 64.464844 C 300.691406 62.828125 298.910156 61.230469 297.09375 59.667969 C 295.273438 58.109375 293.425781 56.585938 291.542969 55.105469 C 289.660156 53.621094 287.75 52.179688 285.804688 50.78125 C 283.863281 49.378906 281.890625 48.019531 279.886719 46.703125 C 277.886719 45.386719 275.859375 44.113281 273.804688 42.878906 C 271.75 41.648438 269.667969 40.464844 267.5625 39.320312 C 265.457031 38.179688 263.328125 37.082031 261.175781 36.027344 C 259.023438 34.976562 256.851562 33.972656 254.65625 33.011719 C 252.460938 32.050781 250.246094 31.140625 248.011719 30.273438 C 245.777344 29.410156 243.527344 28.589844 241.257812 27.820312 C 238.988281 27.050781 236.703125 26.332031 234.40625 25.65625 C 232.105469 24.984375 229.792969 24.363281 227.46875 23.785156 C 225.140625 23.210938 222.804688 22.6875 220.457031 22.210938 C 218.109375 21.738281 215.753906 21.3125 213.386719 20.9375 C 211.019531 20.5625 208.648438 20.238281 206.265625 19.964844 C 203.886719 19.691406 201.503906 19.46875 199.113281 19.292969 C 196.722656 19.121094 194.332031 19 191.9375 18.929688 C 189.542969 18.859375 187.148438 18.835938 184.75 18.867188 C 182.355469 18.898438 179.960938 18.980469 177.570312 19.113281 C 175.179688 19.246094 172.789062 19.429688 170.40625 19.664062 C 168.023438 19.898438 165.644531 20.179688 163.273438 20.515625 C 160.898438 20.851562 158.535156 21.238281 156.179688 21.671875 C 153.824219 22.109375 151.480469 22.59375 149.144531 23.128906 C 146.808594 23.664062 144.488281 24.25 142.175781 24.882812 C 139.867188 25.515625 137.570312 26.199219 135.289062 26.929688 C 133.007812 27.664062 130.742188 28.441406 128.496094 29.269531 C 126.246094 30.097656 124.015625 30.972656 121.808594 31.894531 C 119.597656 32.820312 117.40625 33.789062 115.234375 34.804688 C 113.066406 35.820312 110.917969 36.878906 108.792969 37.988281 C 106.667969 39.09375 104.570312 40.246094 102.492188 41.441406 C 100.417969 42.636719 98.371094 43.878906 96.347656 45.160156 C 94.324219 46.445312 92.328125 47.769531 90.363281 49.136719 C 88.394531 50.507812 86.457031 51.914062 84.550781 53.367188 C 82.644531 54.816406 80.769531 56.304688 78.925781 57.835938 C 77.082031 59.367188 75.273438 60.933594 73.496094 62.542969 C 71.71875 64.148438 69.976562 65.792969 68.273438 67.472656 C 66.566406 69.15625 64.894531 70.871094 63.261719 72.625 C 61.625 74.375 60.03125 76.160156 58.472656 77.980469 C 56.914062 79.800781 55.394531 81.652344 53.917969 83.539062 C 52.4375 85.421875 51 87.335938 49.601562 89.285156 C 48.203125 91.230469 46.847656 93.203125 45.535156 95.207031 C 44.21875 97.210938 42.949219 99.238281 41.722656 101.296875 C 40.496094 103.355469 39.3125 105.4375 38.171875 107.542969 C 37.03125 109.652344 35.9375 111.78125 34.890625 113.9375 C 33.839844 116.089844 32.839844 118.265625 31.882812 120.460938 C 30.925781 122.660156 30.019531 124.875 29.15625 127.109375 C 28.292969 129.34375 27.480469 131.597656 26.714844 133.867188 C 25.949219 136.136719 25.230469 138.421875 24.5625 140.722656 C 23.890625 143.023438 23.273438 145.335938 22.703125 147.664062 C 22.132812 149.988281 21.609375 152.328125 21.136719 154.675781 C 20.667969 157.023438 20.246094 159.382812 19.875 161.75 C 19.503906 164.117188 19.183594 166.488281 18.914062 168.871094 C 18.644531 171.25 18.421875 173.636719 18.253906 176.027344 C 18.085938 178.414062 17.96875 180.808594 17.898438 183.203125 C 17.832031 185.597656 17.816406 187.992188 17.851562 190.386719 C 17.886719 192.78125 17.972656 195.175781 18.109375 197.566406 C 18.242188 199.960938 18.429688 202.347656 18.667969 204.730469 C 18.90625 207.113281 19.195312 209.492188 19.535156 211.863281 C 19.871094 214.234375 20.261719 216.597656 20.703125 218.953125 C 21.140625 221.308594 21.628906 223.652344 22.167969 225.988281 C 22.707031 228.324219 23.296875 230.644531 23.933594 232.953125 C 24.570312 235.261719 25.257812 237.558594 25.992188 239.835938 C 26.726562 242.117188 27.511719 244.378906 28.34375 246.628906 C 28.648438 247.382812 29.054688 248.078125 29.566406 248.714844 C 30.074219 249.351562 30.667969 249.898438 31.34375 250.355469 C 32.015625 250.816406 32.742188 251.167969 33.519531 251.410156 C 34.300781 251.652344 35.097656 251.777344 35.910156 251.78125 C 36.878906 251.933594 37.84375 251.933594 38.808594 251.78125 C 39.296875 251.578125 39.761719 251.328125 40.199219 251.035156 C 40.640625 250.746094 41.046875 250.414062 41.425781 250.046875 C 41.800781 249.675781 42.140625 249.277344 42.441406 248.84375 C 42.742188 248.410156 43.003906 247.953125 43.21875 247.472656 C 43.433594 246.988281 43.601562 246.492188 43.722656 245.976562 C 43.839844 245.464844 43.914062 244.945312 43.9375 244.417969 C 43.957031 243.890625 43.929688 243.367188 43.855469 242.84375 C 43.777344 242.320312 43.652344 241.8125 43.480469 241.3125 C 40.25 232.71875 37.820312 223.898438 36.195312 214.859375 C 34.574219 205.820312 33.78125 196.710938 33.816406 187.527344 C 33.816406 183.722656 33.957031 179.921875 34.238281 176.128906 C 34.519531 172.335938 34.941406 168.558594 35.503906 164.796875 C 36.066406 161.03125 36.769531 157.296875 37.613281 153.585938 C 38.457031 149.878906 39.433594 146.203125 40.550781 142.566406 C 41.667969 138.929688 42.917969 135.339844 44.304688 131.796875 C 45.6875 128.253906 47.203125 124.769531 48.847656 121.339844 C 50.496094 117.910156 52.265625 114.542969 54.160156 111.246094 C 56.058594 107.949219 58.074219 104.726562 60.210938 101.578125 C 62.347656 98.433594 64.601562 95.367188 66.964844 92.390625 C 69.332031 89.410156 71.804688 86.523438 74.386719 83.730469 C 76.96875 80.933594 79.648438 78.242188 82.433594 75.648438 C 85.214844 73.054688 88.089844 70.566406 91.058594 68.1875 C 94.027344 65.808594 97.082031 63.542969 100.21875 61.390625 C 103.355469 59.238281 106.570312 57.207031 109.859375 55.296875 C 113.148438 53.386719 116.503906 51.597656 119.925781 49.9375 C 123.347656 48.277344 126.828125 46.746094 130.363281 45.347656 C 133.902344 43.945312 137.484375 42.679688 141.117188 41.542969 C 144.746094 40.410156 148.417969 39.414062 152.121094 38.554688 C 155.828125 37.695312 159.5625 36.976562 163.320312 36.394531 C 167.082031 35.816406 170.855469 35.375 174.648438 35.078125 C 178.441406 34.777344 182.238281 34.621094 186.042969 34.605469 C 189.847656 34.59375 193.648438 34.71875 197.441406 34.988281 C 201.238281 35.257812 205.015625 35.667969 208.78125 36.21875 C 212.542969 36.769531 216.28125 37.457031 219.996094 38.289062 C 223.707031 39.121094 227.382812 40.085938 231.023438 41.191406 C 234.664062 42.296875 238.257812 43.535156 241.804688 44.90625 C 245.355469 46.28125 248.84375 47.785156 252.28125 49.417969 C 255.714844 51.050781 259.085938 52.8125 262.390625 54.699219 C 265.695312 56.582031 268.921875 58.589844 272.078125 60.714844 C 275.230469 62.84375 278.300781 65.082031 281.289062 67.441406 C 284.277344 69.796875 287.171875 72.257812 289.972656 74.832031 C 292.777344 77.402344 295.480469 80.078125 298.082031 82.851562 L 251.222656 82.851562 C 250.691406 82.851562 250.167969 82.902344 249.648438 83.003906 C 249.132812 83.109375 248.628906 83.261719 248.140625 83.464844 C 247.652344 83.667969 247.1875 83.914062 246.746094 84.207031 C 246.308594 84.5 245.902344 84.835938 245.527344 85.210938 C 245.152344 85.582031 244.820312 85.988281 244.527344 86.429688 C 244.230469 86.867188 243.984375 87.332031 243.78125 87.820312 C 243.578125 88.308594 243.425781 88.8125 243.324219 89.332031 C 243.21875 89.851562 243.167969 90.375 243.167969 90.902344 C 243.167969 91.429688 243.21875 91.957031 243.324219 92.472656 C 243.425781 92.992188 243.578125 93.496094 243.78125 93.984375 C 243.984375 94.472656 244.230469 94.9375 244.527344 95.375 C 244.820312 95.816406 245.152344 96.222656 245.527344 96.597656 C 245.902344 96.96875 246.308594 97.304688 246.746094 97.597656 C 247.1875 97.890625 247.652344 98.140625 248.140625 98.339844 C 248.628906 98.542969 249.132812 98.695312 249.648438 98.800781 C 250.167969 98.902344 250.691406 98.953125 251.222656 98.953125 L 315.636719 98.953125 C 316.164062 98.953125 316.6875 98.902344 317.207031 98.800781 C 317.726562 98.695312 318.230469 98.542969 318.71875 98.339844 C 319.207031 98.140625 319.671875 97.890625 320.109375 97.597656 C 320.550781 97.304688 320.957031 96.96875 321.328125 96.597656 C 321.703125 96.222656 322.039062 95.816406 322.332031 95.375 C 322.625 94.9375 322.871094 94.472656 323.074219 93.984375 C 323.277344 93.496094 323.429688 92.992188 323.535156 92.472656 C 323.636719 91.957031 323.6875 91.429688 323.6875 90.902344 L 323.6875 26.488281 C 323.6875 25.957031 323.636719 25.433594 323.535156 24.917969 C 323.429688 24.398438 323.277344 23.894531 323.074219 23.40625 C 322.871094 22.917969 322.625 22.453125 322.332031 22.015625 C 322.039062 21.574219 321.703125 21.167969 321.328125 20.792969 C 320.957031 20.417969 320.550781 20.085938 320.109375 19.792969 C 319.671875 19.5 319.207031 19.25 318.71875 19.046875 C 318.230469 18.847656 317.726562 18.691406 317.207031 18.589844 C 316.6875 18.488281 316.164062 18.433594 315.636719 18.433594 Z M 315.636719 18.433594 "/>
</g>
</svg>
