<?xml version="1.0" encoding="UTF-8"?><svg xmlns="http://www.w3.org/2000/svg" xmlns:xlink="http://www.w3.org/1999/xlink" width="300pt" height="299.999988pt" viewBox="0 0 300 299.999988" version="1.2"><defs><clipPath id="clip1"><path d="M 48.148438 45.425781 L 300 45.425781 L 300 300 L 48.148438 300 Z M 48.148438 45.425781 "/></clipPath></defs><g id="surface1"><rect x="0" y="0" width="300" height="299.999988" style="fill:rgb(100%,100%,100%);fill-opacity:1;stroke:none;"/><rect x="0" y="0" width="300" height="299.999988" style="fill:rgb(100%,100%,100%);fill-opacity:1;stroke:none;"/><g clip-path="url(#clip1)" clip-rule="nonzero"><path style=" stroke:none;fill-rule:nonzero;fill:rgb(99.609375%,77.249146%,73.329163%);fill-opacity:1;" d="M 54.910156 186.3125 C 54.921875 186.320312 54.929688 186.332031 54.945312 186.339844 C 54.945312 186.339844 54.945312 186.339844 54.945312 186.34375 L 123.554688 241.957031 C 123.566406 241.964844 123.574219 241.976562 123.582031 241.984375 C 123.644531 242.035156 123.695312 242.097656 123.75 242.152344 C 123.828125 242.230469 123.910156 242.304688 123.976562 242.386719 C 123.980469 242.394531 123.988281 242.402344 123.996094 242.40625 L 142.515625 266.222656 C 172.40625 304.65625 228.039062 311.503906 266.535156 281.488281 C 280.101562 270.910156 290.230469 256.765625 295.828125 240.582031 C 298.976562 231.472656 300.621094 221.964844 300.710938 212.320312 C 300.574219 164.042969 276.753906 102.515625 276.515625 101.902344 C 276.464844 101.773438 276.425781 101.644531 276.394531 101.511719 C 275.425781 97.253906 272.855469 93.632812 269.160156 91.3125 C 265.453125 88.984375 261.058594 88.246094 256.789062 89.230469 C 247.980469 91.261719 242.445312 100.082031 244.449219 108.890625 L 257.085938 164.339844 C 257.097656 164.402344 257.097656 164.460938 257.105469 164.519531 C 257.125 164.625 257.140625 164.726562 257.144531 164.832031 C 257.148438 164.917969 257.144531 165.007812 257.140625 165.09375 C 257.132812 165.183594 257.132812 165.269531 257.117188 165.359375 C 257.105469 165.449219 257.082031 165.535156 257.058594 165.625 C 257.039062 165.710938 257.019531 165.792969 256.988281 165.875 C 256.960938 165.957031 256.921875 166.035156 256.882812 166.117188 C 256.847656 166.199219 256.8125 166.277344 256.765625 166.355469 C 256.71875 166.433594 256.664062 166.503906 256.609375 166.578125 C 256.558594 166.648438 256.511719 166.71875 256.453125 166.78125 C 256.382812 166.859375 256.304688 166.929688 256.226562 167 C 256.179688 167.039062 256.144531 167.085938 256.097656 167.121094 C 256.085938 167.128906 256.074219 167.132812 256.066406 167.140625 C 255.855469 167.300781 255.617188 167.425781 255.359375 167.519531 C 255.304688 167.539062 255.253906 167.558594 255.199219 167.574219 C 255.136719 167.59375 255.082031 167.621094 255.019531 167.632812 C 254.824219 167.679688 254.628906 167.695312 254.4375 167.699219 C 254.425781 167.699219 254.417969 167.703125 254.410156 167.703125 C 254.34375 167.703125 254.277344 167.6875 254.207031 167.679688 C 254.09375 167.671875 253.984375 167.664062 253.875 167.644531 C 253.785156 167.625 253.699219 167.597656 253.613281 167.570312 C 253.519531 167.542969 253.425781 167.511719 253.335938 167.472656 C 253.246094 167.4375 253.164062 167.390625 253.078125 167.34375 C 252.992188 167.296875 252.914062 167.246094 252.832031 167.191406 C 252.757812 167.136719 252.683594 167.082031 252.609375 167.019531 C 252.523438 166.945312 252.449219 166.863281 252.371094 166.777344 C 252.332031 166.730469 252.277344 166.695312 252.238281 166.644531 L 228.777344 136.476562 C 228.714844 136.394531 228.671875 136.308594 228.617188 136.222656 C 228.601562 136.195312 228.578125 136.175781 228.558594 136.148438 L 181.847656 54.242188 C 181.839844 54.230469 181.839844 54.214844 181.832031 54.203125 C 181.824219 54.1875 181.8125 54.179688 181.808594 54.164062 C 179.765625 50.304688 176.339844 47.46875 172.160156 46.191406 C 167.980469 44.910156 163.546875 45.332031 159.675781 47.390625 C 151.695312 51.628906 148.625 61.558594 152.824219 69.535156 L 203.113281 156.96875 C 203.128906 156.996094 203.136719 157.023438 203.148438 157.046875 C 203.195312 157.136719 203.234375 157.222656 203.269531 157.316406 C 203.300781 157.394531 203.335938 157.472656 203.359375 157.554688 C 203.386719 157.644531 203.402344 157.730469 203.417969 157.820312 C 203.4375 157.910156 203.453125 157.996094 203.460938 158.082031 C 203.46875 158.167969 203.46875 158.253906 203.46875 158.339844 C 203.46875 158.429688 203.46875 158.519531 203.460938 158.609375 C 203.453125 158.695312 203.433594 158.78125 203.417969 158.867188 C 203.402344 158.953125 203.386719 159.039062 203.359375 159.125 C 203.335938 159.210938 203.300781 159.292969 203.265625 159.375 C 203.234375 159.453125 203.203125 159.535156 203.164062 159.613281 C 203.121094 159.691406 203.074219 159.765625 203.023438 159.839844 C 202.976562 159.914062 202.925781 159.992188 202.867188 160.0625 C 202.816406 160.128906 202.753906 160.1875 202.691406 160.25 C 202.625 160.320312 202.558594 160.390625 202.484375 160.453125 C 202.460938 160.472656 202.441406 160.492188 202.421875 160.511719 C 202.394531 160.53125 202.363281 160.539062 202.339844 160.554688 C 202.261719 160.613281 202.191406 160.675781 202.105469 160.726562 C 201.996094 160.789062 201.878906 160.816406 201.769531 160.863281 C 201.6875 160.898438 201.613281 160.9375 201.53125 160.960938 C 201.269531 161.042969 201.003906 161.09375 200.738281 161.09375 C 200.71875 161.09375 200.707031 161.085938 200.691406 161.085938 C 200.484375 161.085938 200.28125 161.058594 200.078125 161.007812 C 200.007812 160.988281 199.941406 160.957031 199.867188 160.933594 C 199.730469 160.886719 199.59375 160.835938 199.460938 160.769531 C 199.382812 160.726562 199.3125 160.675781 199.238281 160.628906 C 199.125 160.554688 199.015625 160.476562 198.910156 160.382812 C 198.839844 160.316406 198.773438 160.25 198.710938 160.175781 C 198.664062 160.125 198.609375 160.085938 198.566406 160.03125 L 125.207031 65.710938 C 119.667969 58.589844 109.359375 57.324219 102.226562 62.886719 C 95.09375 68.445312 93.792969 78.757812 99.324219 85.878906 L 172.6875 180.210938 C 172.828125 180.390625 172.933594 180.582031 173.023438 180.78125 C 173.039062 180.816406 173.046875 180.855469 173.0625 180.890625 C 173.179688 181.1875 173.25 181.496094 173.257812 181.808594 C 173.257812 181.847656 173.257812 181.878906 173.253906 181.917969 C 173.253906 182.234375 173.203125 182.546875 173.09375 182.84375 C 173.078125 182.878906 173.0625 182.910156 173.046875 182.945312 C 172.925781 183.246094 172.75 183.523438 172.523438 183.765625 C 172.511719 183.78125 172.507812 183.796875 172.496094 183.808594 C 172.453125 183.855469 172.398438 183.890625 172.351562 183.933594 C 172.300781 183.976562 172.261719 184.027344 172.207031 184.070312 C 172.191406 184.082031 172.171875 184.085938 172.15625 184.097656 C 171.9375 184.261719 171.699219 184.386719 171.453125 184.476562 C 171.40625 184.492188 171.355469 184.503906 171.304688 184.519531 C 171.050781 184.597656 170.789062 184.648438 170.523438 184.648438 C 170.519531 184.648438 170.519531 184.648438 170.519531 184.648438 C 170.207031 184.648438 169.90625 184.578125 169.613281 184.476562 C 169.558594 184.457031 169.507812 184.445312 169.457031 184.421875 C 169.175781 184.304688 168.914062 184.136719 168.679688 183.921875 C 168.660156 183.902344 168.632812 183.898438 168.613281 183.878906 L 91.707031 109.542969 C 85.007812 103.777344 74.851562 104.390625 68.878906 111.007812 C 65.941406 114.257812 64.441406 118.460938 64.65625 122.832031 C 64.875 127.203125 66.777344 131.21875 70.015625 134.148438 C 70.027344 134.160156 70.03125 134.171875 70.042969 134.183594 C 70.054688 134.191406 70.066406 134.195312 70.078125 134.207031 L 142.214844 203.46875 C 142.226562 203.480469 142.230469 203.5 142.246094 203.515625 C 142.480469 203.75 142.664062 204.019531 142.796875 204.308594 C 142.8125 204.347656 142.832031 204.378906 142.847656 204.417969 C 142.964844 204.707031 143.027344 205.015625 143.042969 205.328125 C 143.046875 205.367188 143.050781 205.40625 143.050781 205.449219 C 143.050781 205.757812 142.996094 206.0625 142.890625 206.359375 C 142.878906 206.402344 142.867188 206.441406 142.851562 206.480469 C 142.765625 206.691406 142.660156 206.902344 142.519531 207.09375 C 142.46875 207.160156 142.402344 207.210938 142.347656 207.273438 C 142.324219 207.296875 142.320312 207.332031 142.292969 207.355469 C 142.253906 207.398438 142.203125 207.429688 142.160156 207.46875 C 142.097656 207.53125 142.03125 207.585938 141.960938 207.636719 C 141.863281 207.710938 141.761719 207.777344 141.660156 207.835938 C 141.589844 207.875 141.523438 207.914062 141.453125 207.945312 C 141.332031 208.003906 141.203125 208.042969 141.074219 208.082031 C 141.015625 208.097656 140.957031 208.125 140.894531 208.136719 C 140.703125 208.179688 140.507812 208.203125 140.3125 208.203125 C 139.996094 208.203125 139.683594 208.136719 139.382812 208.027344 C 139.285156 207.992188 139.199219 207.929688 139.105469 207.886719 C 138.960938 207.8125 138.808594 207.761719 138.675781 207.664062 L 74.242188 159.792969 C 66.949219 154.488281 56.6875 156.117188 51.359375 163.425781 C 48.773438 166.972656 47.722656 171.3125 48.398438 175.640625 C 49.074219 179.957031 51.386719 183.746094 54.910156 186.3125 "/></g><path style=" stroke:none;fill-rule:nonzero;fill:rgb(99.609375%,77.249146%,73.329163%);fill-opacity:1;" d="M 67.027344 239.921875 C 67.441406 240.144531 67.882812 240.246094 68.320312 240.246094 C 69.300781 240.246094 70.25 239.71875 70.746094 238.792969 C 71.460938 237.453125 70.957031 235.789062 69.617188 235.070312 C 51.726562 225.488281 37.167969 210.070312 28.628906 191.664062 C 27.992188 190.285156 26.355469 189.683594 24.980469 190.328125 C 23.605469 190.964844 23.007812 192.601562 23.648438 193.980469 C 32.683594 213.460938 48.089844 229.777344 67.027344 239.921875 "/><path style=" stroke:none;fill-rule:nonzero;fill:rgb(99.609375%,77.249146%,73.329163%);fill-opacity:1;" d="M 62.445312 263.445312 C 62.859375 263.667969 63.300781 263.773438 63.738281 263.773438 C 64.71875 263.773438 65.667969 263.246094 66.164062 262.320312 C 66.878906 260.980469 66.375 259.3125 65.035156 258.597656 C 39.121094 244.710938 18.035156 222.382812 5.664062 195.71875 C 5.023438 194.339844 3.390625 193.742188 2.015625 194.382812 C 0.640625 195.023438 0.0429688 196.660156 0.679688 198.035156 C 13.550781 225.773438 35.484375 249.003906 62.445312 263.445312 "/><path style=" stroke:none;fill-rule:nonzero;fill:rgb(99.609375%,77.249146%,73.329163%);fill-opacity:1;" d="M 188.222656 30.03125 C 206.113281 39.617188 220.671875 55.03125 229.210938 73.441406 C 229.675781 74.441406 230.667969 75.03125 231.703125 75.03125 C 232.089844 75.03125 232.484375 74.949219 232.859375 74.777344 C 234.234375 74.136719 234.832031 72.5 234.191406 71.125 C 225.152344 51.640625 209.746094 35.324219 190.8125 25.179688 C 189.476562 24.464844 187.8125 24.972656 187.09375 26.308594 C 186.378906 27.648438 186.882812 29.3125 188.222656 30.03125 "/><path style=" stroke:none;fill-rule:nonzero;fill:rgb(99.609375%,77.249146%,73.329163%);fill-opacity:1;" d="M 192.800781 6.503906 C 218.71875 20.390625 239.808594 42.722656 252.175781 69.386719 C 252.640625 70.386719 253.632812 70.976562 254.667969 70.976562 C 255.058594 70.976562 255.449219 70.894531 255.824219 70.71875 C 257.199219 70.078125 257.796875 68.445312 257.160156 67.066406 C 244.292969 39.328125 222.355469 16.097656 195.394531 1.65625 C 194.058594 0.941406 192.394531 1.445312 191.675781 2.785156 C 190.960938 4.121094 191.464844 5.789062 192.800781 6.503906 "/></g></svg>
