<?xml version="1.0" encoding="UTF-8"?><svg xmlns="http://www.w3.org/2000/svg" xmlns:xlink="http://www.w3.org/1999/xlink" width="300pt" height="299.999988pt" viewBox="0 0 300 299.999988" version="1.2"><defs><clipPath id="clip1">  <path d="M 48.03125 45.316406 L 299.957031 45.316406 L 299.957031 299.4375 L 48.03125 299.4375 Z M 48.03125 45.316406 "/></clipPath></defs><g id="surface1"><g clip-path="url(#clip1)" clip-rule="nonzero"><path style=" stroke:none;fill-rule:nonzero;fill:rgb(96.469116%,59.609985%,58.81958%);fill-opacity:1;" d="M 54.777344 185.847656 C 54.789062 185.855469 54.796875 185.867188 54.808594 185.875 C 54.808594 185.875 54.808594 185.875 54.808594 185.878906 L 123.246094 241.355469 C 123.257812 241.363281 123.265625 241.375 123.277344 241.382812 C 123.335938 241.429688 123.386719 241.492188 123.441406 241.546875 C 123.519531 241.625 123.601562 241.699219 123.667969 241.78125 C 123.671875 241.789062 123.679688 241.796875 123.6875 241.800781 L 142.160156 265.558594 C 171.976562 303.894531 227.46875 310.726562 265.867188 280.785156 C 279.402344 270.234375 289.503906 256.121094 295.085938 239.980469 C 298.226562 230.894531 299.867188 221.410156 299.957031 211.792969 C 299.824219 163.636719 276.0625 102.261719 275.824219 101.648438 C 275.773438 101.523438 275.734375 101.390625 275.703125 101.257812 C 274.734375 97.011719 272.171875 93.398438 268.488281 91.085938 C 264.789062 88.765625 260.40625 88.027344 256.148438 89.011719 C 247.359375 91.035156 241.839844 99.832031 243.839844 108.617188 L 256.441406 163.933594 C 256.453125 163.992188 256.453125 164.050781 256.464844 164.113281 C 256.480469 164.214844 256.5 164.316406 256.503906 164.421875 C 256.507812 164.507812 256.5 164.597656 256.496094 164.683594 C 256.488281 164.769531 256.488281 164.859375 256.476562 164.945312 C 256.460938 165.039062 256.4375 165.125 256.414062 165.214844 C 256.394531 165.296875 256.375 165.378906 256.347656 165.460938 C 256.316406 165.542969 256.277344 165.621094 256.238281 165.703125 C 256.203125 165.785156 256.167969 165.863281 256.121094 165.941406 C 256.078125 166.019531 256.019531 166.089844 255.964844 166.164062 C 255.917969 166.230469 255.867188 166.300781 255.8125 166.367188 C 255.742188 166.445312 255.664062 166.511719 255.582031 166.582031 C 255.539062 166.621094 255.503906 166.667969 255.457031 166.707031 C 255.445312 166.714844 255.433594 166.714844 255.425781 166.722656 C 255.214844 166.882812 254.976562 167.007812 254.71875 167.101562 C 254.667969 167.121094 254.617188 167.140625 254.558594 167.15625 C 254.5 167.175781 254.445312 167.203125 254.382812 167.214844 C 254.1875 167.261719 253.992188 167.277344 253.800781 167.28125 C 253.789062 167.28125 253.78125 167.285156 253.773438 167.285156 C 253.707031 167.285156 253.640625 167.269531 253.570312 167.261719 C 253.460938 167.253906 253.347656 167.246094 253.242188 167.226562 C 253.152344 167.207031 253.066406 167.179688 252.976562 167.152344 C 252.882812 167.125 252.789062 167.09375 252.703125 167.058594 C 252.613281 167.019531 252.53125 166.972656 252.445312 166.929688 C 252.359375 166.882812 252.28125 166.828125 252.199219 166.773438 C 252.125 166.71875 252.050781 166.664062 251.976562 166.601562 C 251.890625 166.527344 251.816406 166.445312 251.738281 166.363281 C 251.699219 166.316406 251.648438 166.277344 251.609375 166.230469 L 228.207031 136.136719 C 228.144531 136.058594 228.097656 135.96875 228.046875 135.882812 C 228.027344 135.855469 228.003906 135.835938 227.988281 135.808594 L 181.394531 54.109375 C 181.386719 54.097656 181.382812 54.082031 181.375 54.070312 C 181.371094 54.054688 181.359375 54.046875 181.351562 54.03125 C 179.316406 50.179688 175.898438 47.351562 171.730469 46.078125 C 167.5625 44.800781 163.140625 45.222656 159.277344 47.273438 C 151.316406 51.503906 148.253906 61.410156 152.445312 69.363281 L 202.605469 156.578125 C 202.621094 156.601562 202.628906 156.628906 202.640625 156.65625 C 202.6875 156.742188 202.726562 156.832031 202.761719 156.925781 C 202.792969 157.003906 202.824219 157.082031 202.851562 157.160156 C 202.878906 157.25 202.894531 157.339844 202.910156 157.429688 C 202.925781 157.515625 202.945312 157.601562 202.953125 157.6875 C 202.960938 157.773438 202.960938 157.859375 202.960938 157.945312 C 202.960938 158.035156 202.960938 158.125 202.953125 158.214844 C 202.945312 158.300781 202.925781 158.386719 202.910156 158.46875 C 202.890625 158.558594 202.878906 158.644531 202.851562 158.726562 C 202.828125 158.8125 202.792969 158.894531 202.757812 158.976562 C 202.726562 159.058594 202.695312 159.136719 202.65625 159.214844 C 202.613281 159.292969 202.566406 159.367188 202.515625 159.441406 C 202.46875 159.515625 202.417969 159.59375 202.359375 159.664062 C 202.308594 159.730469 202.246094 159.789062 202.1875 159.851562 C 202.121094 159.921875 202.050781 159.988281 201.976562 160.050781 C 201.953125 160.070312 201.9375 160.09375 201.914062 160.113281 C 201.890625 160.132812 201.859375 160.136719 201.832031 160.15625 C 201.753906 160.210938 201.683594 160.277344 201.597656 160.324219 C 201.492188 160.386719 201.375 160.417969 201.265625 160.464844 C 201.183594 160.496094 201.109375 160.535156 201.027344 160.5625 C 200.765625 160.640625 200.5 160.691406 200.234375 160.691406 C 200.21875 160.691406 200.207031 160.6875 200.191406 160.6875 C 199.984375 160.683594 199.78125 160.65625 199.578125 160.605469 C 199.507812 160.589844 199.441406 160.558594 199.371094 160.535156 C 199.230469 160.488281 199.09375 160.4375 198.960938 160.367188 C 198.882812 160.328125 198.8125 160.277344 198.738281 160.230469 C 198.628906 160.152344 198.515625 160.074219 198.414062 159.980469 C 198.34375 159.917969 198.277344 159.847656 198.214844 159.777344 C 198.164062 159.726562 198.113281 159.6875 198.070312 159.632812 L 124.894531 65.546875 C 119.371094 58.445312 109.085938 57.183594 101.972656 62.730469 C 94.859375 68.277344 93.558594 78.5625 99.078125 85.667969 L 172.257812 179.761719 C 172.394531 179.9375 172.5 180.132812 172.589844 180.332031 C 172.605469 180.367188 172.617188 180.402344 172.628906 180.441406 C 172.75 180.738281 172.816406 181.042969 172.824219 181.355469 C 172.828125 181.394531 172.824219 181.425781 172.824219 181.464844 C 172.820312 181.777344 172.769531 182.089844 172.660156 182.386719 C 172.648438 182.421875 172.628906 182.457031 172.613281 182.492188 C 172.492188 182.789062 172.320312 183.066406 172.09375 183.308594 C 172.082031 183.320312 172.078125 183.339844 172.066406 183.351562 C 172.019531 183.398438 171.96875 183.429688 171.921875 183.472656 C 171.871094 183.519531 171.832031 183.570312 171.777344 183.609375 C 171.761719 183.621094 171.742188 183.625 171.726562 183.636719 C 171.507812 183.800781 171.273438 183.925781 171.023438 184.015625 C 170.976562 184.035156 170.929688 184.046875 170.878906 184.058594 C 170.625 184.136719 170.363281 184.1875 170.097656 184.1875 C 170.09375 184.1875 170.09375 184.1875 170.09375 184.1875 C 169.78125 184.1875 169.480469 184.117188 169.1875 184.015625 C 169.136719 183.996094 169.085938 183.984375 169.03125 183.960938 C 168.753906 183.84375 168.492188 183.675781 168.261719 183.464844 C 168.238281 183.445312 168.210938 183.4375 168.191406 183.417969 L 91.480469 109.269531 C 84.796875 103.519531 74.667969 104.132812 68.707031 110.730469 C 65.777344 113.976562 64.28125 118.164062 64.496094 122.527344 C 64.714844 126.886719 66.613281 130.894531 69.84375 133.816406 C 69.855469 133.824219 69.859375 133.839844 69.867188 133.847656 C 69.878906 133.859375 69.894531 133.863281 69.90625 133.871094 L 141.859375 202.960938 C 141.871094 202.972656 141.875 202.992188 141.890625 203.007812 C 142.125 203.242188 142.308594 203.507812 142.441406 203.800781 C 142.457031 203.835938 142.476562 203.871094 142.492188 203.910156 C 142.609375 204.199219 142.671875 204.503906 142.6875 204.816406 C 142.6875 204.855469 142.691406 204.894531 142.691406 204.933594 C 142.695312 205.242188 142.640625 205.546875 142.535156 205.847656 C 142.519531 205.886719 142.511719 205.925781 142.492188 205.964844 C 142.410156 206.175781 142.304688 206.382812 142.164062 206.574219 C 142.113281 206.644531 142.046875 206.691406 141.992188 206.753906 C 141.96875 206.78125 141.964844 206.816406 141.941406 206.839844 C 141.898438 206.882812 141.851562 206.914062 141.808594 206.953125 C 141.742188 207.011719 141.675781 207.070312 141.609375 207.121094 C 141.511719 207.195312 141.410156 207.257812 141.304688 207.316406 C 141.238281 207.355469 141.171875 207.394531 141.101562 207.429688 C 140.976562 207.484375 140.851562 207.527344 140.722656 207.5625 C 140.664062 207.582031 140.605469 207.605469 140.546875 207.617188 C 140.351562 207.660156 140.160156 207.683594 139.960938 207.683594 C 139.648438 207.683594 139.335938 207.617188 139.035156 207.507812 C 138.9375 207.472656 138.851562 207.414062 138.757812 207.367188 C 138.613281 207.296875 138.464844 207.242188 138.328125 207.144531 L 74.058594 159.394531 C 66.785156 154.101562 56.550781 155.726562 51.234375 163.019531 C 48.652344 166.558594 47.605469 170.886719 48.28125 175.203125 C 48.953125 179.507812 51.261719 183.285156 54.777344 185.847656 "/></g><path style=" stroke:none;fill-rule:nonzero;fill:rgb(96.469116%,59.609985%,58.81958%);fill-opacity:1;" d="M 66.863281 239.320312 C 67.273438 239.542969 67.714844 239.648438 68.152344 239.648438 C 69.128906 239.648438 70.078125 239.121094 70.570312 238.199219 C 71.285156 236.863281 70.78125 235.199219 69.445312 234.484375 C 51.597656 224.921875 37.078125 209.546875 28.558594 191.183594 C 27.921875 189.808594 26.292969 189.210938 24.921875 189.851562 C 23.546875 190.488281 22.953125 192.121094 23.589844 193.496094 C 32.605469 212.929688 47.972656 229.203125 66.863281 239.320312 "/><path style=" stroke:none;fill-rule:nonzero;fill:rgb(96.469116%,59.609985%,58.81958%);fill-opacity:1;" d="M 62.292969 262.789062 C 62.703125 263.007812 63.144531 263.113281 63.582031 263.113281 C 64.558594 263.113281 65.507812 262.589844 66 261.664062 C 66.714844 260.328125 66.210938 258.664062 64.875 257.953125 C 39.023438 244.101562 17.992188 221.828125 5.652344 195.230469 C 5.015625 193.855469 3.386719 193.257812 2.011719 193.898438 C 0.640625 194.535156 0.0429688 196.167969 0.683594 197.542969 C 13.519531 225.210938 35.398438 248.382812 62.292969 262.789062 "/><path style=" stroke:none;fill-rule:nonzero;fill:rgb(96.469116%,59.609985%,58.81958%);fill-opacity:1;" d="M 187.75 29.957031 C 205.597656 39.519531 220.117188 54.894531 228.636719 73.257812 C 229.101562 74.257812 230.089844 74.847656 231.125 74.847656 C 231.511719 74.847656 231.902344 74.765625 232.277344 74.589844 C 233.648438 73.953125 234.242188 72.320312 233.605469 70.949219 C 224.589844 51.511719 209.222656 35.238281 190.335938 25.121094 C 189.003906 24.40625 187.34375 24.910156 186.625 26.246094 C 185.914062 27.578125 186.414062 29.242188 187.75 29.957031 "/><path style=" stroke:none;fill-rule:nonzero;fill:rgb(96.469116%,59.609985%,58.81958%);fill-opacity:1;" d="M 192.320312 6.492188 C 218.171875 20.339844 239.207031 42.617188 251.546875 69.214844 C 252.007812 70.210938 253 70.800781 254.03125 70.800781 C 254.417969 70.800781 254.8125 70.71875 255.183594 70.542969 C 256.558594 69.90625 257.152344 68.273438 256.515625 66.902344 C 243.679688 39.230469 221.800781 16.058594 194.90625 1.65625 C 193.574219 0.941406 191.914062 1.441406 191.195312 2.777344 C 190.484375 4.113281 190.988281 5.777344 192.320312 6.492188 "/></g></svg>
