<?xml version="1.0" encoding="UTF-8"?><svg xmlns="http://www.w3.org/2000/svg" xmlns:xlink="http://www.w3.org/1999/xlink" width="375pt" height="374.999991pt" viewBox="0 0 375 374.999991" version="1.2"><defs><clipPath id="clip1"><path d="M 204 181 L 345.191406 181 L 345.191406 193 L 204 193 Z M 204 181 "/></clipPath><clipPath id="clip2"><path d="M 29.441406 18.226562 L 188 18.226562 L 188 356.476562 L 29.441406 356.476562 Z M 29.441406 18.226562 "/></clipPath></defs><g id="surface1"><path style=" stroke:none;fill-rule:nonzero;fill:rgb(45.098877%,45.098877%,45.098877%);fill-opacity:1;" d="M 266.21875 249.363281 C 264.777344 249.363281 263.332031 248.8125 262.234375 247.714844 L 205.875 191.339844 C 203.671875 189.132812 203.671875 185.570312 205.875 183.367188 C 208.074219 181.164062 211.648438 181.164062 213.84375 183.367188 L 270.203125 239.742188 C 272.40625 241.945312 272.40625 245.507812 270.203125 247.714844 C 269.105469 248.8125 267.664062 249.363281 266.21875 249.363281 Z M 266.21875 249.363281 "/><path style=" stroke:none;fill-rule:nonzero;fill:rgb(45.098877%,45.098877%,45.098877%);fill-opacity:1;" d="M 209.859375 192.988281 C 208.417969 192.988281 206.976562 192.4375 205.875 191.339844 C 203.671875 189.132812 203.671875 185.570312 205.875 183.367188 L 262.234375 126.992188 C 264.433594 124.789062 268.007812 124.789062 270.203125 126.992188 C 272.40625 129.195312 272.40625 132.757812 270.203125 134.964844 L 213.84375 191.339844 C 212.746094 192.4375 211.304688 192.988281 209.859375 192.988281 Z M 209.859375 192.988281 "/><g clip-path="url(#clip1)" clip-rule="nonzero"><path style=" stroke:none;fill-rule:nonzero;fill:rgb(45.098877%,45.098877%,45.098877%);fill-opacity:1;" d="M 339.484375 192.988281 L 209.859375 192.988281 C 206.75 192.988281 204.226562 190.464844 204.226562 187.351562 C 204.226562 184.242188 206.75 181.714844 209.859375 181.714844 L 339.484375 181.714844 C 342.597656 181.714844 345.121094 184.242188 345.121094 187.351562 C 345.121094 190.464844 342.597656 192.988281 339.484375 192.988281 Z M 339.484375 192.988281 "/></g><g clip-path="url(#clip2)" clip-rule="nonzero"><path style=" stroke:none;fill-rule:nonzero;fill:rgb(45.098877%,45.098877%,45.098877%);fill-opacity:1;" d="M 181.679688 356.476562 C 181.394531 356.476562 181.113281 356.453125 180.824219 356.410156 L 34.292969 333.859375 C 31.539062 333.4375 29.511719 331.070312 29.511719 328.289062 L 29.511719 46.414062 C 29.511719 43.628906 31.539062 41.269531 34.292969 40.84375 L 180.824219 18.296875 C 182.453125 18.046875 184.105469 18.515625 185.351562 19.585938 C 186.601562 20.65625 187.316406 22.21875 187.316406 23.863281 L 187.316406 350.839844 C 187.316406 352.484375 186.601562 354.046875 185.351562 355.117188 C 184.324219 356 183.015625 356.476562 181.679688 356.476562 Z M 40.785156 323.453125 L 176.046875 344.265625 L 176.046875 30.433594 L 40.785156 51.253906 Z M 40.785156 323.453125 "/></g><path style=" stroke:none;fill-rule:nonzero;fill:rgb(45.098877%,45.098877%,45.098877%);fill-opacity:1;" d="M 254.949219 339.566406 L 181.679688 339.566406 C 178.570312 339.566406 176.046875 337.039062 176.046875 333.925781 L 176.046875 40.777344 C 176.046875 37.664062 178.570312 35.140625 181.679688 35.140625 L 254.949219 35.140625 C 258.058594 35.140625 260.582031 37.664062 260.582031 40.777344 L 260.582031 114.066406 C 260.582031 117.175781 258.058594 119.703125 254.949219 119.703125 C 251.835938 119.703125 249.3125 117.175781 249.3125 114.066406 L 249.3125 46.414062 L 187.316406 46.414062 L 187.316406 328.289062 L 249.3125 328.289062 L 249.3125 260.640625 C 249.3125 257.527344 251.835938 255.003906 254.949219 255.003906 C 258.058594 255.003906 260.582031 257.527344 260.582031 260.640625 L 260.582031 333.925781 C 260.582031 337.039062 258.058594 339.566406 254.949219 339.566406 Z M 254.949219 339.566406 "/><path style=" stroke:none;fill-rule:nonzero;fill:rgb(45.098877%,45.098877%,45.098877%);fill-opacity:1;" d="M 142.230469 204.265625 C 129.796875 204.265625 119.6875 194.152344 119.6875 181.714844 C 119.6875 169.277344 129.796875 159.164062 142.230469 159.164062 C 154.664062 159.164062 164.773438 169.277344 164.773438 181.714844 C 164.773438 194.152344 154.664062 204.265625 142.230469 204.265625 Z M 142.230469 170.441406 C 136.011719 170.441406 130.957031 175.496094 130.957031 181.714844 C 130.957031 187.933594 136.011719 192.988281 142.230469 192.988281 C 148.445312 192.988281 153.5 187.933594 153.5 181.714844 C 153.5 175.496094 148.445312 170.441406 142.230469 170.441406 Z M 142.230469 170.441406 "/></g></svg>
