<?xml version="1.0" encoding="UTF-8"?>
<svg xmlns="http://www.w3.org/2000/svg" xmlns:xlink="http://www.w3.org/1999/xlink" width="375pt" height="374.999991pt" viewBox="0 0 375 374.999991" version="1.2">
<g id="surface1">
<path style=" stroke:none;fill-rule:nonzero;fill:rgb(95.689392%,54.899597%,62.748718%);fill-opacity:1;" d="M 350.164062 134.089844 C 350.042969 133.53125 349.867188 132.988281 349.632812 132.464844 C 349.398438 131.941406 349.113281 131.449219 348.773438 130.984375 C 348.433594 130.523438 348.050781 130.101562 347.621094 129.71875 C 347.195312 129.335938 346.730469 129.003906 346.230469 128.722656 C 345.734375 128.4375 345.210938 128.210938 344.664062 128.039062 C 344.117188 127.867188 343.558594 127.753906 342.988281 127.699219 C 342.414062 127.644531 341.84375 127.652344 341.277344 127.71875 C 340.707031 127.785156 340.148438 127.910156 339.605469 128.09375 C 339.0625 128.28125 338.546875 128.519531 338.054688 128.8125 C 337.5625 129.109375 337.105469 129.453125 336.6875 129.84375 C 336.269531 130.234375 335.894531 130.664062 335.566406 131.136719 C 335.238281 131.605469 334.960938 132.105469 334.742188 132.632812 C 334.519531 133.160156 334.355469 133.707031 334.246094 134.273438 C 334.140625 134.835938 334.09375 135.402344 334.109375 135.976562 C 334.121094 136.550781 334.195312 137.117188 334.332031 137.671875 C 334.464844 138.230469 334.65625 138.769531 334.902344 139.285156 C 335.84375 142.167969 336.695312 145.078125 337.464844 148.011719 C 338.234375 150.945312 338.914062 153.902344 339.511719 156.875 C 340.105469 159.851562 340.613281 162.839844 341.03125 165.84375 C 341.449219 168.847656 341.777344 171.863281 342.019531 174.886719 C 342.261719 177.910156 342.414062 180.9375 342.476562 183.96875 C 342.539062 187 342.511719 190.035156 342.398438 193.066406 C 342.28125 196.09375 342.078125 199.121094 341.785156 202.140625 C 341.488281 205.160156 341.109375 208.167969 340.636719 211.164062 C 340.167969 214.160156 339.609375 217.140625 338.960938 220.101562 C 338.316406 223.066406 337.582031 226.007812 336.761719 228.929688 C 335.941406 231.847656 335.039062 234.742188 334.046875 237.609375 C 333.058594 240.476562 331.984375 243.3125 330.828125 246.117188 C 329.671875 248.921875 328.433594 251.6875 327.113281 254.417969 C 325.792969 257.148438 324.394531 259.839844 322.917969 262.488281 C 321.4375 265.136719 319.882812 267.738281 318.253906 270.296875 C 316.621094 272.855469 314.917969 275.363281 313.136719 277.816406 C 311.359375 280.273438 309.507812 282.675781 307.589844 285.023438 C 305.667969 287.371094 303.679688 289.660156 301.625 291.894531 C 299.570312 294.125 297.449219 296.292969 295.265625 298.398438 C 293.085938 300.503906 290.839844 302.542969 288.539062 304.519531 C 286.234375 306.492188 283.875 308.394531 281.460938 310.230469 C 279.046875 312.066406 276.578125 313.828125 274.058594 315.519531 C 271.539062 317.207031 268.972656 318.824219 266.359375 320.359375 C 263.746094 321.898438 261.089844 323.359375 258.390625 324.742188 C 255.691406 326.125 252.953125 327.425781 250.175781 328.648438 C 247.398438 329.867188 244.589844 331.007812 241.746094 332.0625 C 238.902344 333.117188 236.027344 334.089844 233.128906 334.976562 C 230.226562 335.859375 227.300781 336.660156 224.355469 337.375 C 221.40625 338.089844 218.441406 338.714844 215.457031 339.257812 C 212.46875 339.796875 209.472656 340.246094 206.460938 340.609375 C 203.449219 340.972656 200.429688 341.246094 197.402344 341.433594 C 194.375 341.617188 191.34375 341.714844 188.3125 341.722656 C 183.066406 341.71875 177.835938 341.453125 172.617188 340.914062 C 167.398438 340.378906 162.222656 339.578125 157.085938 338.511719 C 151.953125 337.441406 146.882812 336.117188 141.882812 334.53125 C 136.882812 332.945312 131.980469 331.105469 127.167969 329.015625 C 122.355469 326.929688 117.664062 324.597656 113.089844 322.03125 C 108.519531 319.460938 104.089844 316.664062 99.800781 313.640625 C 95.515625 310.617188 91.394531 307.382812 87.441406 303.9375 C 83.488281 300.488281 79.71875 296.851562 76.136719 293.019531 L 123.375 293.019531 C 123.910156 293.019531 124.4375 292.96875 124.960938 292.863281 C 125.484375 292.757812 125.992188 292.605469 126.484375 292.402344 C 126.976562 292.199219 127.441406 291.949219 127.886719 291.652344 C 128.328125 291.355469 128.738281 291.019531 129.117188 290.640625 C 129.492188 290.265625 129.828125 289.855469 130.125 289.410156 C 130.421875 288.96875 130.671875 288.5 130.875 288.007812 C 131.078125 287.515625 131.234375 287.007812 131.335938 286.484375 C 131.441406 285.964844 131.492188 285.4375 131.492188 284.902344 C 131.492188 284.371094 131.441406 283.839844 131.335938 283.320312 C 131.234375 282.796875 131.078125 282.289062 130.875 281.796875 C 130.671875 281.304688 130.421875 280.835938 130.125 280.394531 C 129.828125 279.949219 129.492188 279.539062 129.117188 279.164062 C 128.738281 278.785156 128.328125 278.449219 127.886719 278.152344 C 127.441406 277.859375 126.976562 277.609375 126.484375 277.402344 C 125.992188 277.199219 125.484375 277.046875 124.960938 276.941406 C 124.4375 276.835938 123.910156 276.785156 123.375 276.785156 L 58.441406 276.785156 C 57.910156 276.785156 57.378906 276.835938 56.859375 276.941406 C 56.335938 277.046875 55.828125 277.199219 55.335938 277.402344 C 54.84375 277.609375 54.375 277.859375 53.933594 278.152344 C 53.488281 278.449219 53.078125 278.785156 52.703125 279.164062 C 52.324219 279.539062 51.988281 279.949219 51.691406 280.394531 C 51.398438 280.835938 51.148438 281.304688 50.941406 281.796875 C 50.738281 282.289062 50.585938 282.796875 50.480469 283.320312 C 50.375 283.839844 50.324219 284.371094 50.324219 284.902344 L 50.324219 349.835938 C 50.324219 350.371094 50.375 350.898438 50.480469 351.421875 C 50.585938 351.945312 50.738281 352.453125 50.941406 352.945312 C 51.148438 353.4375 51.398438 353.902344 51.691406 354.347656 C 51.988281 354.789062 52.324219 355.199219 52.703125 355.578125 C 53.078125 355.953125 53.488281 356.289062 53.933594 356.585938 C 54.375 356.882812 54.84375 357.132812 55.335938 357.335938 C 55.828125 357.539062 56.335938 357.695312 56.859375 357.796875 C 57.378906 357.902344 57.910156 357.953125 58.441406 357.953125 C 58.972656 357.953125 59.503906 357.902344 60.023438 357.796875 C 60.546875 357.695312 61.054688 357.539062 61.546875 357.335938 C 62.039062 357.132812 62.507812 356.882812 62.949219 356.585938 C 63.394531 356.289062 63.804688 355.953125 64.179688 355.578125 C 64.558594 355.199219 64.894531 354.789062 65.191406 354.347656 C 65.488281 353.902344 65.738281 353.4375 65.941406 352.945312 C 66.144531 352.453125 66.296875 351.945312 66.402344 351.421875 C 66.507812 350.898438 66.558594 350.371094 66.558594 349.835938 L 66.558594 306.492188 C 68.222656 308.203125 69.921875 309.875 71.660156 311.511719 C 73.394531 313.148438 75.164062 314.746094 76.964844 316.308594 C 78.765625 317.871094 80.601562 319.394531 82.46875 320.878906 C 84.332031 322.367188 86.230469 323.8125 88.15625 325.214844 C 90.085938 326.621094 92.039062 327.984375 94.023438 329.308594 C 96.007812 330.632812 98.019531 331.914062 100.058594 333.152344 C 102.097656 334.390625 104.160156 335.585938 106.25 336.738281 C 108.335938 337.890625 110.449219 339 112.585938 340.0625 C 114.71875 341.125 116.875 342.144531 119.054688 343.117188 C 121.230469 344.089844 123.429688 345.015625 125.644531 345.894531 C 127.863281 346.777344 130.097656 347.609375 132.347656 348.398438 C 134.597656 349.183594 136.867188 349.921875 139.148438 350.613281 C 141.433594 351.304688 143.730469 351.949219 146.039062 352.542969 C 148.347656 353.136719 150.667969 353.683594 153.003906 354.179688 C 155.335938 354.679688 157.675781 355.125 160.027344 355.523438 C 162.378906 355.925781 164.738281 356.273438 167.105469 356.574219 C 169.472656 356.871094 171.84375 357.121094 174.21875 357.324219 C 176.597656 357.523438 178.976562 357.671875 181.359375 357.773438 C 183.742188 357.875 186.128906 357.921875 188.511719 357.921875 C 190.898438 357.921875 193.28125 357.871094 195.664062 357.773438 C 198.046875 357.671875 200.425781 357.523438 202.804688 357.320312 C 205.179688 357.121094 207.550781 356.871094 209.917969 356.570312 C 212.285156 356.269531 214.644531 355.921875 216.996094 355.523438 C 219.347656 355.125 221.6875 354.675781 224.023438 354.179688 C 226.355469 353.679688 228.675781 353.132812 230.984375 352.539062 C 233.296875 351.945312 235.589844 351.300781 237.875 350.609375 C 240.15625 349.917969 242.425781 349.179688 244.675781 348.390625 C 246.929688 347.605469 249.160156 346.773438 251.378906 345.890625 C 253.59375 345.011719 255.792969 344.085938 257.96875 343.109375 C 260.148438 342.136719 262.304688 341.121094 264.4375 340.054688 C 266.574219 338.992188 268.6875 337.886719 270.773438 336.734375 C 272.863281 335.582031 274.925781 334.382812 276.964844 333.144531 C 279.003906 331.90625 281.011719 330.625 282.996094 329.300781 C 284.980469 327.976562 286.9375 326.613281 288.863281 325.207031 C 290.792969 323.800781 292.6875 322.355469 294.554688 320.871094 C 296.421875 319.386719 298.253906 317.863281 300.058594 316.300781 C 301.859375 314.738281 303.628906 313.136719 305.363281 311.5 C 307.097656 309.863281 308.796875 308.191406 310.460938 306.484375 C 312.125 304.777344 313.753906 303.035156 315.347656 301.257812 C 316.9375 299.480469 318.492188 297.671875 320.007812 295.828125 C 321.523438 293.988281 323 292.113281 324.433594 290.210938 C 325.871094 288.308594 327.269531 286.375 328.625 284.410156 C 329.980469 282.449219 331.292969 280.457031 332.566406 278.441406 C 333.835938 276.421875 335.066406 274.378906 336.25 272.308594 C 337.4375 270.242188 338.578125 268.148438 339.679688 266.03125 C 340.777344 263.914062 341.828125 261.773438 342.835938 259.609375 C 343.84375 257.449219 344.808594 255.269531 345.722656 253.066406 C 346.640625 250.863281 347.511719 248.644531 348.332031 246.40625 C 349.15625 244.164062 349.933594 241.910156 350.660156 239.640625 C 351.390625 237.367188 352.070312 235.082031 352.703125 232.785156 C 353.335938 230.484375 353.917969 228.171875 354.453125 225.847656 C 354.988281 223.523438 355.476562 221.1875 355.914062 218.84375 C 356.351562 216.5 356.738281 214.144531 357.074219 211.785156 C 357.414062 209.421875 357.703125 207.054688 357.941406 204.683594 C 358.179688 202.308594 358.371094 199.933594 358.507812 197.550781 C 358.648438 195.171875 358.738281 192.789062 358.773438 190.402344 C 358.8125 188.019531 358.800781 185.632812 358.742188 183.25 C 358.679688 180.863281 358.570312 178.484375 358.40625 176.101562 C 358.246094 173.722656 358.035156 171.347656 357.773438 168.976562 C 357.511719 166.605469 357.199219 164.242188 356.839844 161.882812 C 356.480469 159.527344 356.070312 157.175781 355.609375 154.835938 C 355.152344 152.496094 354.644531 150.167969 354.085938 147.847656 C 353.527344 145.527344 352.921875 143.222656 352.269531 140.929688 C 351.613281 138.632812 350.914062 136.355469 350.164062 134.089844 Z M 350.164062 134.089844 "/>
<path style=" stroke:none;fill-rule:nonzero;fill:rgb(98.81897%,75.289917%,77.249146%);fill-opacity:1;" d="M 318.183594 17.046875 C 317.648438 17.046875 317.121094 17.097656 316.597656 17.203125 C 316.074219 17.304688 315.566406 17.460938 315.074219 17.664062 C 314.582031 17.867188 314.117188 18.117188 313.671875 18.414062 C 313.230469 18.710938 312.820312 19.046875 312.441406 19.421875 C 312.066406 19.800781 311.730469 20.210938 311.433594 20.652344 C 311.136719 21.097656 310.886719 21.5625 310.683594 22.054688 C 310.480469 22.546875 310.324219 23.054688 310.222656 23.578125 C 310.117188 24.101562 310.066406 24.628906 310.066406 25.164062 L 310.066406 68.507812 C 308.375 66.785156 306.644531 65.097656 304.882812 63.445312 C 303.117188 61.796875 301.320312 60.183594 299.488281 58.613281 C 297.65625 57.039062 295.792969 55.503906 293.894531 54.011719 C 291.996094 52.515625 290.070312 51.0625 288.109375 49.652344 C 286.152344 48.238281 284.164062 46.867188 282.144531 45.539062 C 280.128906 44.214844 278.085938 42.929688 276.011719 41.6875 C 273.941406 40.449219 271.84375 39.25 269.71875 38.097656 C 267.597656 36.949219 265.453125 35.839844 263.28125 34.78125 C 261.113281 33.722656 258.921875 32.707031 256.707031 31.738281 C 254.496094 30.773438 252.261719 29.851562 250.011719 28.980469 C 247.757812 28.109375 245.488281 27.285156 243.203125 26.507812 C 240.917969 25.730469 238.613281 25.003906 236.296875 24.324219 C 233.976562 23.648438 231.648438 23.019531 229.300781 22.441406 C 226.957031 21.859375 224.601562 21.332031 222.234375 20.851562 C 219.867188 20.375 217.492188 19.945312 215.105469 19.566406 C 212.722656 19.191406 210.328125 18.863281 207.929688 18.585938 C 205.53125 18.308594 203.128906 18.085938 200.71875 17.910156 C 198.308594 17.738281 195.898438 17.613281 193.484375 17.542969 C 191.070312 17.472656 188.65625 17.449219 186.242188 17.480469 C 183.828125 17.511719 181.414062 17.59375 179.003906 17.730469 C 176.589844 17.863281 174.183594 18.046875 171.78125 18.28125 C 169.378906 18.519531 166.980469 18.804688 164.589844 19.144531 C 162.199219 19.480469 159.816406 19.871094 157.441406 20.308594 C 155.066406 20.75 152.699219 21.238281 150.347656 21.777344 C 147.992188 22.316406 145.652344 22.90625 143.324219 23.546875 C 140.992188 24.183594 138.679688 24.871094 136.378906 25.609375 C 134.082031 26.347656 131.796875 27.132812 129.53125 27.96875 C 127.265625 28.800781 125.019531 29.683594 122.789062 30.613281 C 120.558594 31.542969 118.351562 32.523438 116.164062 33.546875 C 113.976562 34.570312 111.8125 35.640625 109.671875 36.753906 C 107.53125 37.871094 105.414062 39.03125 103.320312 40.238281 C 101.226562 41.445312 99.164062 42.691406 97.125 43.988281 C 95.082031 45.28125 93.074219 46.617188 91.089844 47.996094 C 89.109375 49.375 87.15625 50.796875 85.234375 52.257812 C 83.3125 53.71875 81.421875 55.222656 79.5625 56.765625 C 77.707031 58.308594 75.878906 59.886719 74.089844 61.507812 C 72.296875 63.128906 70.542969 64.785156 68.820312 66.480469 C 67.101562 68.175781 65.417969 69.90625 63.769531 71.671875 C 62.125 73.4375 60.515625 75.238281 58.945312 77.074219 C 57.375 78.90625 55.84375 80.773438 54.351562 82.671875 C 52.859375 84.574219 51.410156 86.503906 50 88.464844 C 48.59375 90.425781 47.226562 92.417969 45.902344 94.4375 C 44.578125 96.457031 43.296875 98.5 42.058594 100.574219 C 40.820312 102.648438 39.628906 104.75 38.480469 106.871094 C 37.332031 108.996094 36.230469 111.144531 35.171875 113.316406 C 34.113281 115.488281 33.105469 117.679688 32.140625 119.894531 C 31.175781 122.109375 30.261719 124.34375 29.390625 126.597656 C 28.523438 128.851562 27.703125 131.121094 26.929688 133.410156 C 26.15625 135.695312 25.433594 138 24.757812 140.320312 C 24.085938 142.636719 23.460938 144.96875 22.886719 147.316406 C 22.308594 149.660156 21.785156 152.019531 21.308594 154.386719 C 20.835938 156.753906 20.410156 159.128906 20.035156 161.515625 C 19.660156 163.902344 19.335938 166.292969 19.066406 168.695312 C 18.792969 171.09375 18.570312 173.496094 18.402344 175.90625 C 18.230469 178.316406 18.113281 180.726562 18.042969 183.140625 C 17.976562 185.554688 17.960938 187.96875 17.996094 190.382812 C 18.03125 192.800781 18.117188 195.210938 18.253906 197.621094 C 18.390625 200.035156 18.578125 202.441406 18.820312 204.84375 C 19.058594 207.246094 19.351562 209.644531 19.691406 212.035156 C 20.03125 214.425781 20.425781 216.808594 20.867188 219.179688 C 21.3125 221.554688 21.804688 223.917969 22.347656 226.273438 C 22.890625 228.625 23.484375 230.964844 24.125 233.292969 C 24.769531 235.621094 25.460938 237.933594 26.203125 240.234375 C 26.945312 242.53125 27.734375 244.8125 28.570312 247.078125 C 28.878906 247.839844 29.289062 248.542969 29.804688 249.183594 C 30.320312 249.824219 30.914062 250.375 31.59375 250.835938 C 32.273438 251.300781 33.007812 251.652344 33.792969 251.898438 C 34.574219 252.140625 35.378906 252.265625 36.203125 252.273438 C 37.175781 252.429688 38.148438 252.429688 39.125 252.273438 C 39.613281 252.066406 40.082031 251.816406 40.523438 251.523438 C 40.964844 251.230469 41.378906 250.894531 41.757812 250.523438 C 42.140625 250.152344 42.480469 249.75 42.785156 249.3125 C 43.089844 248.875 43.347656 248.414062 43.566406 247.929688 C 43.78125 247.441406 43.953125 246.941406 44.074219 246.421875 C 44.195312 245.90625 44.265625 245.382812 44.289062 244.851562 C 44.3125 244.320312 44.285156 243.789062 44.207031 243.261719 C 44.132812 242.738281 44.003906 242.222656 43.832031 241.722656 C 40.574219 233.054688 38.125 224.167969 36.488281 215.054688 C 34.851562 205.941406 34.050781 196.757812 34.089844 187.5 C 34.089844 183.664062 34.230469 179.835938 34.511719 176.011719 C 34.796875 172.1875 35.222656 168.378906 35.789062 164.585938 C 36.359375 160.792969 37.066406 157.027344 37.917969 153.289062 C 38.765625 149.546875 39.753906 145.84375 40.878906 142.179688 C 42.003906 138.511719 43.265625 134.894531 44.660156 131.324219 C 46.058594 127.75 47.585938 124.234375 49.242188 120.777344 C 50.902344 117.320312 52.6875 113.929688 54.597656 110.605469 C 56.511719 107.28125 58.542969 104.03125 60.699219 100.859375 C 62.851562 97.6875 65.121094 94.597656 67.507812 91.597656 C 69.890625 88.59375 72.382812 85.683594 74.988281 82.867188 C 77.589844 80.050781 80.292969 77.332031 83.097656 74.71875 C 85.902344 72.105469 88.800781 69.597656 91.792969 67.199219 C 94.785156 64.800781 97.863281 62.515625 101.027344 60.347656 C 104.1875 58.179688 107.429688 56.132812 110.742188 54.203125 C 114.058594 52.277344 117.441406 50.476562 120.890625 48.804688 C 124.34375 47.128906 127.851562 45.585938 131.414062 44.171875 C 134.980469 42.761719 138.59375 41.484375 142.253906 40.339844 C 145.914062 39.199219 149.613281 38.195312 153.347656 37.328125 C 157.085938 36.460938 160.847656 35.734375 164.636719 35.152344 C 168.429688 34.566406 172.234375 34.121094 176.058594 33.820312 C 179.878906 33.519531 183.710938 33.363281 187.542969 33.347656 C 191.378906 33.332031 195.210938 33.460938 199.035156 33.730469 C 202.859375 34.003906 206.667969 34.414062 210.464844 34.972656 C 214.257812 35.527344 218.027344 36.222656 221.769531 37.058594 C 225.511719 37.894531 229.21875 38.871094 232.886719 39.984375 C 236.558594 41.097656 240.179688 42.347656 243.757812 43.730469 C 247.332031 45.117188 250.851562 46.632812 254.316406 48.277344 C 257.777344 49.925781 261.175781 51.699219 264.507812 53.601562 C 267.835938 55.5 271.09375 57.523438 274.273438 59.667969 C 277.453125 61.8125 280.546875 64.070312 283.558594 66.445312 C 286.570312 68.820312 289.488281 71.304688 292.3125 73.898438 C 295.136719 76.488281 297.863281 79.183594 300.488281 81.980469 L 253.246094 81.980469 C 252.714844 81.980469 252.1875 82.03125 251.664062 82.136719 C 251.140625 82.242188 250.632812 82.394531 250.140625 82.597656 C 249.648438 82.800781 249.179688 83.050781 248.738281 83.347656 C 248.292969 83.644531 247.882812 83.980469 247.507812 84.359375 C 247.128906 84.734375 246.792969 85.144531 246.496094 85.589844 C 246.203125 86.03125 245.953125 86.5 245.746094 86.992188 C 245.542969 87.484375 245.390625 87.992188 245.285156 88.515625 C 245.183594 89.035156 245.128906 89.5625 245.128906 90.097656 C 245.128906 90.628906 245.183594 91.15625 245.285156 91.679688 C 245.390625 92.203125 245.542969 92.710938 245.746094 93.203125 C 245.953125 93.695312 246.203125 94.164062 246.496094 94.605469 C 246.792969 95.050781 247.128906 95.460938 247.507812 95.835938 C 247.882812 96.214844 248.292969 96.550781 248.738281 96.847656 C 249.179688 97.140625 249.648438 97.390625 250.140625 97.597656 C 250.632812 97.800781 251.140625 97.953125 251.664062 98.058594 C 252.1875 98.164062 252.714844 98.214844 253.246094 98.214844 L 318.183594 98.214844 C 318.714844 98.214844 319.242188 98.164062 319.765625 98.058594 C 320.289062 97.953125 320.796875 97.800781 321.289062 97.597656 C 321.78125 97.390625 322.25 97.140625 322.691406 96.847656 C 323.132812 96.550781 323.542969 96.214844 323.921875 95.835938 C 324.296875 95.460938 324.632812 95.050781 324.929688 94.605469 C 325.226562 94.164062 325.476562 93.695312 325.679688 93.203125 C 325.882812 92.710938 326.039062 92.203125 326.144531 91.679688 C 326.246094 91.15625 326.296875 90.628906 326.296875 90.097656 L 326.296875 25.164062 C 326.296875 24.628906 326.246094 24.101562 326.144531 23.578125 C 326.039062 23.054688 325.882812 22.546875 325.679688 22.054688 C 325.476562 21.5625 325.226562 21.097656 324.929688 20.652344 C 324.632812 20.210938 324.296875 19.800781 323.921875 19.421875 C 323.542969 19.046875 323.132812 18.710938 322.691406 18.414062 C 322.25 18.117188 321.78125 17.867188 321.289062 17.664062 C 320.796875 17.460938 320.289062 17.304688 319.765625 17.203125 C 319.242188 17.097656 318.714844 17.046875 318.183594 17.046875 Z M 318.183594 17.046875 "/>
</g>
</svg>
